<?xml version="1.0"?>
<svg width="320" xmlns="http://www.w3.org/2000/svg" xmlns:svg="http://www.w3.org/2000/svg" preserveAspectRatio="xMinYMin meet" viewBox="0 0 1024 256">
 <metadata id="metadata3044">image/svg+xml</metadata>
 <g>
  <title>Layer 1</title>
  <g id="layer1">
   <g id="g4226" transform="matrix(1.1077223,0,0,1.1077223,-18.233922,179.97453) ">
    <path id="path3255" d="m134.465347,-91.097778c0,-0.000908 -0.005997,0.000671 -0.005997,0.010315c-0.239334,0.997681 -1.279236,2.30249 -2.627533,3.28949c-3.22261,2.359314 -7.9953,4.101387 -15.614098,5.705261c-9.299316,1.957642 -13.43148,3.465149 -14.073997,5.134705c-0.477699,1.241211 1.594048,2.708435 5.759636,4.081055c3.618919,1.192444 7.987442,2.174866 20.478874,4.600166c1.648376,0.320068 3.596283,0.759148 4.328888,0.976616c0.732605,0.217407 1.463074,0.401978 1.623337,0.411133c0.276031,0.015686 0.286728,-0.671204 0.270599,-12.36132c-0.007996,-6.594551 -0.071899,-11.798592 -0.140549,-11.847351l0.000839,-0.000069zm-34.969109,16.164856l0,21.710751l0,21.710762l0.957321,0c1.804222,-0.003971 9.281334,-0.325809 11.61306,-0.4986c13.23497,-0.98053 24.259491,-3.579712 30.765137,-7.25745c5.378387,-3.040459 8.133759,-6.75103 8.168671,-10.994141c0.007996,-1.03466 -0.078705,-1.868099 -0.26532,-2.467159c-1.578995,-5.068298 -8.575714,-9.34436 -20.187561,-12.340759c-3.299339,-0.85144 -5.496246,-1.326782 -10.317535,-2.225578c-10.747879,-2.003616 -17.828835,-4.45771 -20.135445,-6.979919l-0.598328,-0.657906zm54.589577,26.891724l-0.322571,1.233578c-0.657303,2.514709 -2.434891,5.334171 -4.50058,7.128971c-5.70314,4.955021 -16.435135,8.55615 -30.203262,10.135799c-4.990334,0.572571 -13.929306,1.15583 -17.69014,1.1565l-2.133224,0.06164c0,0 -2.750389,0.055611 -6.082291,0.10285c0.049904,0.304501 0.087906,0.53021 0.140495,0.85321c0.330498,2.03204 0.648445,3.737001 0.707619,3.788021c0.059097,0.051149 0.584702,0.263609 1.170677,0.472898c0.585991,0.209291 1.363724,0.523682 1.727348,0.699041l0.660782,0.318659l3.064644,-2.328369c2.678368,-2.037041 3.126221,-2.32971 3.584785,-2.33349c0.675079,-0.005011 1.059753,0.29022 3.829384,2.950251c3.697281,3.551029 4.411049,4.482 4.157135,5.4123c-0.057899,0.210749 -1.08374,1.65222 -2.278839,3.20214l-2.169701,2.816649l0.624321,1.2901c0.344864,0.70899 0.709412,1.56208 0.811699,1.89661c0.114929,0.375609 0.298035,0.65033 0.47876,0.71954c0.160835,0.06171 1.918861,0.33771 3.907379,0.6117c0.501472,0.06909 0.816704,0.11615 1.191467,0.16961c0.710403,-0.79559 1.783653,-1.9992 2.898094,-3.25354c3.680359,-4.14233 3.144142,-3.7149 5.062492,-4.02966c5.352966,-0.87829 9.714066,-2.13995 13.850296,-4.00909c9.229996,-4.170898 14.454391,-8.36566 16.519379,-13.265987c0.939972,-2.230412 1.01442,-2.94416 1.004211,-9.683483l-0.009995,-6.116447l-0.000366,0zm-114.611156,17.326479l0.83255,0.79669c0.78001,0.744869 5.69968,5.22015 14.38102,13.080929c0,0 4.732712,4.109501 9.698269,8.588691c0.027901,-0.00501 0.108383,-0.0188 0.109314,-0.02057c0.010689,-0.01972 0.250679,-0.63904 0.535858,-1.37238c0.285309,-0.73333 0.633957,-1.552119 0.775291,-1.81952l0.254929,-0.483089l-0.790878,-1.04858c-0.436363,-0.57654 -1.442291,-1.83197 -2.23201,-2.78577c-1.73896,-2.10022 -1.889511,-2.362 -1.691002,-2.940001c0.223499,-0.65094 1.7192,-2.364019 4.105179,-4.70813c2.378502,-2.33692 3.294281,-3.031799 4.006248,-3.037659c0.499474,-0.003971 0.529953,0.01343 4.427765,2.945129l2.164406,1.62933l0.676453,-0.33923c0.372749,-0.187559 1.155411,-0.521179 1.737671,-0.74011c0.582405,-0.218939 1.098587,-0.435369 1.14991,-0.48316c0.051399,-0.047729 0.253616,-1.2829 0.447426,-2.74469c0.104874,-0.790039 0.200943,-1.47027 0.291389,-2.066219c-3.505989,-0.11414 -7.289375,-0.28784 -7.289375,-0.28784c-3.416901,-0.003971 -19.23901,-0.953621 -27.430031,-1.64472c-2.106159,-0.177731 -4.353809,-0.367731 -4.994911,-0.421511l-1.16547,-0.097589zm114.621517,13.1015l-0.666016,1.726991c-3.121933,8.10114 -8.746887,13.59802 -18.803421,18.374939c-3.553253,1.6878 -9.154556,3.77997 -12.929451,4.82641c-0.711388,0.19715 -1.377548,0.38666 -1.482841,0.42658c-0.105278,0.03967 -1.502769,-1.02039 -3.106171,-2.35919c-0.308586,-0.25763 -0.719894,-0.59735 -1.077034,-0.89435c-0.613739,0.1178 -1.436943,0.24945 -2.632751,0.43176c-3.917297,0.59717 -3.818794,0.57416 -3.959412,0.9303c-0.065796,0.16644 -0.410812,0.98523 -0.77002,1.81952l-0.655647,1.51623l0.515167,0.72474c0.283043,0.39746 1.323158,1.70941 2.31012,2.91943c0.986938,1.20996 1.830902,2.34863 1.878304,2.52881c0.047096,0.18011 0.044197,0.47369 -0.010002,0.65271c-0.167831,0.55579 -1.579781,2.208191 -3.777397,4.41522c-2.90493,2.917419 -4.085983,3.665899 -5.020821,3.18152c-0.154755,-0.080141 -1.320595,-0.942261 -2.591072,-1.91205c-1.270477,-0.96966 -2.542603,-1.933161 -2.830414,-2.143311l-0.52552,-0.380369l-0.608757,0.318729c-0.335579,0.17486 -1.151627,0.522881 -1.81057,0.77606l-1.196739,0.462641l-0.348633,2.636719c-0.214157,1.627441 -0.381607,2.785461 -0.541016,3.623661c3.453949,-0.38776 6.15509,-0.781311 6.155014,-0.781311l0.006004,-0.226139c0.027901,0.16571 0.062897,0.23645 0.104073,0.23645c0.422516,0 4.680527,-0.667721 7.435074,-1.166801c6.868935,-1.244629 13.377663,-2.956669 18.564232,-4.882879c5.029526,-1.86792 11.678146,-5.182489 16.118759,-8.0387c6.194016,-3.98394 9.758743,-8.00085 11.332108,-12.76226c0.820404,-2.48279 0.936981,-3.7887 0.931351,-10.63434l-0.006012,-6.34772l-0.000488,0zm-67.024704,6.034181c-0.44178,0.00073 -0.888931,0.029719 -1.337151,0.087399c-2.568298,0.33002 -4.158501,1.13361 -6.10305,3.07361c-1.098244,1.09558 -1.379425,1.47015 -1.919861,2.60077c-1.431313,2.99432 -1.399681,6.14014 0.083199,9.07703c0.560501,1.11029 0.867088,1.51733 1.961472,2.58532c1.795929,1.75226 3.46209,2.60755 5.775406,2.95545c1.014206,0.15246 3.126373,0.0235 4.188347,-0.2519c3.53418,-0.91546 6.475098,-3.89788 7.356964,-7.45788c0.759384,-3.06513 0.006004,-6.42767 -1.977089,-8.83032c-2.047279,-2.47931 -4.935799,-3.84589 -8.028198,-3.839479l-0.000038,0zm-22.716232,17.26477c-5.94865,4.49249 -11.477718,8.599 -11.477718,8.599c-2.243511,1.68524 -4.865772,3.65356 -5.827381,4.374021c-0.961391,0.7204 -4.07077,3.05628 -6.90947,5.191229c-2.838772,2.134941 -5.311562,3.986811 -5.489162,4.11187c-0.177597,0.125061 -0.280178,0.26276 -0.234138,0.308411c0.046402,0.045721 2.626122,0.1518 5.73373,0.23645c5.81702,0.158449 29.459801,0.09528 32.497726,-0.0874l1.706642,-0.10272c0,0 3.36615,-0.160889 6.977142,-0.36499c-0.14048,-0.70422 -0.349342,-1.87793 -0.551514,-3.16614c-0.295525,-1.88269 -0.59269,-3.55151 -0.660774,-3.711c-0.080002,-0.187439 -0.442093,-0.403809 -1.025002,-0.606499c-0.495972,-0.172491 -1.294319,-0.485361 -1.774162,-0.69385l-0.874161,-0.37525l-2.840782,2.174139c-1.562134,1.197081 -2.956757,2.240231 -3.101013,2.31805c-0.144272,0.07794 -0.491692,0.1416 -0.77523,0.143919c-0.581352,0.005011 -0.79171,-0.15991 -4.261223,-3.453979c-2.65918,-2.524651 -3.662182,-3.738461 -3.66811,-4.44079c-0.007,-0.6247 0.170391,-0.90265 2.211246,-3.52594c0.813416,-1.045469 1.657021,-2.13452 1.873093,-2.41577l0.390251,-0.50879l-0.567131,-1.17194c-0.311882,-0.64337 -0.681931,-1.52661 -0.82206,-1.96338c-0.14019,-0.43683 -0.318291,-0.81854 -0.400673,-0.84808c-0.006996,-0.00501 -0.095497,-0.01392 -0.130127,-0.02063l0,0.00006z" fill="#000000"/>
    <g id="flowRoot2983" fill="#ffffff" font-family="Sans" font-size="96.7985px" font-weight="normal" font-style="normal">
     <path id="path4210" d="m607.976379,-121.946114c-5.227112,0 -10.454224,2.613533 -13.551819,6.872696l0,-27.297188l-15.294128,1.645569l0,71.824524l13.551758,0l0.774414,-4.936768c3.097534,4.065552 7.743896,6.582344 13.454956,6.582344c12.777405,0 20.4245,-11.422256 20.4245,-27.29718c0,-17.230171 -6.679077,-27.393997 -19.35968,-27.393997zm-5.420715,43.559334c-3.291138,0 -6.195129,-1.839172 -8.131104,-4.936707l0,-21.392517c2.226379,-3.775146 5.130371,-6.001465 8.808716,-6.001465c4.743103,0 8.227844,3.097542 8.227844,16.165352c0,12.002983 -3.678345,16.165337 -8.905457,16.165337z" fill="#000000"/>
     <path id="path4212" d="m677.831604,-83.807503l0,-19.940491c0,-11.90625 -6.388733,-18.19812 -21.295654,-18.19812c-5.807922,0 -12.874207,1.355171 -19.35968,3.775154l3.484741,10.067017c5.13031,-1.742371 10.163818,-2.710327 13.454956,-2.710327c6.291931,0 8.711853,1.839172 8.711853,7.937439l0,2.226379l-5.227112,0c-15.584534,0 -24.102783,6.098335 -24.102783,17.326965c0,9.389465 6.485474,16.06855 16.746094,16.06855c6.098328,0 11.809448,-2.032784 15.487793,-7.743904c2.32312,5.13031 6.29187,6.969482 12.390198,7.453491l3.194336,-9.970207c-2.419983,-0.871223 -3.484741,-2.323196 -3.484741,-6.291946zm-23.134827,5.614326c-3.775146,0 -6.001526,-2.419983 -6.001526,-6.485474c0,-5.130371 3.387939,-7.550293 10.357422,-7.550293l3.775146,0l0,9.09906c-1.839172,3.097534 -4.5495,4.936707 -8.131042,4.936707z" fill="#000000"/>
     <path id="path4214" d="m704.918579,-83.323486l0,-59.047058l-15.294189,1.645569l0,58.950256c0,9.486267 5.033569,14.519783 13.551819,14.519783c3.581543,0 7.259888,-0.677628 9.873413,-1.742371l-3.000732,-10.841446c-0.677551,0.290413 -1.742371,0.484016 -2.516724,0.484016c-1.645569,0 -2.613586,-1.064827 -2.613586,-3.96875z" fill="#000000"/>
     <path id="path4216" d="m733.65564,-83.323486l0,-59.047058l-15.294189,1.645569l0,58.950256c0,9.486267 5.033569,14.519783 13.551819,14.519783c3.581543,0 7.259888,-0.677628 9.873413,-1.742371l-3.000732,-10.841446c-0.677551,0.290413 -1.742371,0.484016 -2.516724,0.484016c-1.645569,0 -2.613586,-1.064827 -2.613586,-3.96875z" fill="#000000"/>
     <path id="path4218" d="m788.431458,-83.807503l0,-19.940491c0,-11.90625 -6.388672,-18.19812 -21.295654,-18.19812c-5.807922,0 -12.874207,1.355171 -19.359741,3.775154l3.484741,10.067017c5.130371,-1.742371 10.163879,-2.710327 13.455017,-2.710327c6.291931,0 8.711853,1.839172 8.711853,7.937439l0,2.226379l-5.227112,0c-15.584534,0 -24.102844,6.098335 -24.102844,17.326965c0,9.389465 6.485535,16.06855 16.746155,16.06855c6.098328,0 11.809448,-2.032784 15.487793,-7.743904c2.32312,5.13031 6.29187,6.969482 12.390198,7.453491l3.194336,-9.970207c-2.419983,-0.871223 -3.484741,-2.323196 -3.484741,-6.291946zm-23.134827,5.614326c-3.775146,0 -6.001526,-2.419983 -6.001526,-6.485474c0,-5.130371 3.387939,-7.550293 10.357422,-7.550293l3.775146,0l0,9.09906c-1.839172,3.097534 -4.5495,4.936707 -8.131042,4.936707z" fill="#000000"/>
     <path id="path4220" d="m828.586182,-121.752502c-5.904724,0 -10.938232,4.259155 -13.261414,11.422241l-1.258362,-9.970276l-13.358215,0l0,51.400024l15.294189,0l0,-25.458008c1.645569,-7.840698 4.259155,-12.583801 10.647827,-12.583801c1.742371,0 3.000732,0.290405 4.646362,0.677551l2.419922,-14.81012c-1.645569,-0.484009 -3.194336,-0.677612 -5.13031,-0.677612z" fill="#000000"/>
     <path id="path4222" d="m878.423828,-83.807503l0,-19.940491c0,-11.90625 -6.388672,-18.19812 -21.295654,-18.19812c-5.807922,0 -12.874207,1.355171 -19.359741,3.775154l3.484741,10.067017c5.130371,-1.742371 10.163879,-2.710327 13.455017,-2.710327c6.291931,0 8.711853,1.839172 8.711853,7.937439l0,2.226379l-5.227112,0c-15.584534,0 -24.102844,6.098335 -24.102844,17.326965c0,9.389465 6.485535,16.06855 16.746155,16.06855c6.098328,0 11.809448,-2.032784 15.487793,-7.743904c2.32312,5.13031 6.29187,6.969482 12.390198,7.453491l3.194336,-9.970207c-2.419983,-0.871223 -3.484741,-2.323196 -3.484741,-6.291946zm-23.134827,5.614326c-3.775146,0 -6.001526,-2.419983 -6.001526,-6.485474c0,-5.130371 3.387939,-7.550293 10.357422,-7.550293l3.775146,0l0,9.09906c-1.839172,3.097534 -4.5495,4.936707 -8.131042,4.936707z" fill="#000000"/>
     <path id="path4224" d="m922.934509,-71.320503l-5.13031,-9.776665c-2.032776,1.25843 -3.775146,1.742371 -5.517517,1.742371c-3.194336,0 -4.839905,-1.742371 -4.839905,-6.67907l0,-23.618843l10.163818,0l1.645569,-10.647827l-11.809387,0l0,-12.874207l-15.294189,1.742371l0,11.131836l-7.259888,0l0,10.647827l7.259888,0l0,23.812439c0,12.099792 5.517517,18.488533 16.842957,18.585335c4.646301,0 10.067017,-1.355232 13.938965,-4.065567z" fill="#000000"/>
    </g>
    <g id="flowRoot3775" fill="#ffffff" font-family="Sans" font-size="140.270752px" font-weight="normal" font-style="normal">
     <path id="path4187" d="m201.119324,-55.12994c-10.520309,0 -18.375473,5.470551 -24.26683,13.746521l0,-43.063114l-8.135712,0.981903l0,103.23929l8.135712,0l0,-53.162661c6.031631,-8.977299 12.764618,-15.149231 22.723846,-15.149231c8.837051,0 13.88681,5.04974 13.88681,16.972782l0,51.339109l8.135712,0l0,-52.461279c0,-13.88681 -7.294083,-22.443321 -20.479538,-22.443321z" fill="#000000"/>
     <path id="path4189" d="m296.220673,3.50323l0,-35.348229c0,-15.00897 -7.294067,-23.284941 -23.986298,-23.284941c-7.714905,0 -15.008972,1.68325 -23.144653,4.909481l2.10405,6.171909c7.294083,-2.665131 14.027054,-4.20813 19.918442,-4.20813c12.203552,0 16.972748,5.190029 16.972748,16.832489l0,7.01355l-14.027069,0c-18.79628,0 -30.438736,8.416261 -30.438736,23.846031c0,13.0452 8.556519,21.882241 22.723831,21.882241c9.81897,0 17.674133,-3.92761 22.864136,-12.343811c1.122192,7.85516 4.909485,11.08136 11.361938,12.343811l1.823517,-5.751101c-3.927582,-1.542971 -6.171906,-3.92761 -6.171906,-12.0633zm-28.474976,11.22168c-9.67868,0 -15.429764,-5.61084 -15.429764,-15.71032c0,-11.64249 8.275955,-17.39359 23.00441,-17.39359l12.764618,0l0,20.19898c-4.628937,8.27597 -11.08139,12.90493 -20.339264,12.90493z" fill="#000000"/>
     <path id="path4191" d="m350.807922,-55.12994c-18.796295,0 -30.999817,15.149231 -30.999817,38.71472c0,23.84601 12.343811,37.732851 31.140076,37.732851c8.276001,0 15.28952,-2.945681 21.040619,-7.855171l-4.067841,-5.610839c-5.049744,4.06787 -9.959229,6.3122 -16.832489,6.3122c-13.325714,0 -22.583588,-9.67868 -22.583588,-30.71933c0,-21.18088 9.398132,-31.560881 22.723846,-31.560881c6.733002,0 11.502197,1.963772 16.271423,5.89135l4.067841,-5.470551c-6.171906,-5.330288 -12.4841,-7.434361 -20.760071,-7.434361l0,0.000011z" fill="#000000"/>
     <path id="path4193" d="m399.587067,19.77466l0,-104.221163l-8.135681,0.981903l0,103.23926l8.135681,0zm10.239777,-40.538271l30.859558,-32.82333l-9.398132,0l-30.859558,33.244171l33.664978,40.11743l9.818939,0l-34.085785,-40.538271z" fill="#000000"/>
     <path id="path4195" d="m510.613556,-19.641451c0,-21.601679 -9.538422,-35.488489 -28.615234,-35.488489c-17.954651,0 -29.316589,15.429779 -29.316589,38.855009c0,23.565461 11.782745,37.592562 31.140106,37.592562c9.67868,0 17.113037,-3.36652 23.986298,-8.977361l-3.787292,-5.19c-6.452484,4.76923 -11.782745,7.29407 -19.778168,7.29407c-12.62439,0 -21.882263,-8.27597 -22.864136,-28.194429l48.954498,0c0.140259,-1.40271 0.280518,-3.647039 0.280518,-5.891361zm-7.995422,-0.420809l-41.239624,0c0.841644,-19.918449 9.398163,-28.334679 20.90036,-28.334679c13.88681,0 20.339264,10.239738 20.339264,26.230618l0,2.104061z" fill="#000000"/>
     <path id="path4197" d="m562.388855,-55.12994c-10.239746,0 -16.83252,5.89135 -20.760071,17.954651l-0.701355,-16.41169l-7.01355,0l0,73.361639l8.135742,0l0,-44.88666c3.927551,-15.008972 9.398132,-22.30304 19.637878,-22.30304c2.524841,0 4.348389,0.280518 6.452454,0.84161l1.542969,-7.714901c-1.963806,-0.561069 -4.488647,-0.84161 -7.294067,-0.84161z" fill="#000000"/>
     <path id="path4199" d="m602.826294,-55.12994c-13.88678,0 -24.407104,7.995419 -24.407104,19.076809c0,10.380032 6.312195,16.13113 21.882202,20.199001c15.289551,4.208099 19.357361,7.43433 19.357361,16.41169c0,8.83703 -7.434326,13.88678 -18.09491,13.88678c-8.977295,0 -15.429749,-2.80542 -21.461426,-7.85517l-4.628906,5.33032c6.312195,5.33026 14.307617,9.398141 26.230652,9.398141c14.588135,0 26.511169,-7.714911 26.511169,-21.321171c0,-12.4841 -7.574646,-17.954651 -23.565491,-22.162781c-13.185486,-3.506779 -17.814392,-6.592709 -17.814392,-13.88681c0,-7.574619 6.592712,-12.343807 16.271362,-12.343807c7.434387,0 12.904907,2.24432 19.217102,6.873257l3.927612,-5.470547c-6.873291,-5.330303 -14.0271,-8.135723 -23.425232,-8.135723l0,0.000011z" fill="#000000"/>
     <path id="path4201" d="m680.374084,-55.12994c-9.398132,0 -17.253296,4.769192 -22.583618,12.203548l-0.701355,-10.660587l-7.013489,0l0,102.11713l8.135681,-1.122192l0,-36.189819c4.628967,5.891361 11.642456,10.099491 20.90033,10.099491c18.235229,0 27.913879,-15.429811 27.913879,-38.574471c0,-23.70578 -8.556519,-37.8731 -26.651428,-37.8731zm-2.80542,69.57428c-8.41626,0 -14.868713,-4.34839 -19.357361,-11.22165l0,-38.995269c5.049744,-7.01355 11.22168,-12.624359 20.619812,-12.624359c12.764648,0 19.49762,10.239738 19.49762,31.140099c0,21.04059 -7.294067,31.70118 -20.760071,31.70118z" fill="#000000"/>
     <path id="path4203" d="m777.031555,3.50323l0,-35.348229c0,-15.00897 -7.294067,-23.284941 -23.986328,-23.284941c-7.714844,0 -15.008972,1.68325 -23.144653,4.909481l2.104065,6.171909c7.294067,-2.665131 14.0271,-4.20813 19.918457,-4.20813c12.203552,0 16.972778,5.190029 16.972778,16.832489l0,7.01355l-14.0271,0c-18.796265,0 -30.438782,8.416261 -30.438782,23.846031c0,13.0452 8.556519,21.882241 22.723877,21.882241c9.81897,0 17.674133,-3.92761 22.864136,-12.343811c1.122192,7.85516 4.909485,11.08136 11.361938,12.343811l1.823547,-5.751101c-3.927612,-1.542971 -6.171936,-3.92761 -6.171936,-12.0633zm-28.474976,11.22168c-9.67865,0 -15.429749,-5.61084 -15.429749,-15.71032c0,-11.64249 8.27594,-17.39359 23.004395,-17.39359l12.764648,0l0,20.19898c-4.628967,8.27597 -11.081421,12.90493 -20.339294,12.90493z" fill="#000000"/>
     <path id="path4205" d="m831.618835,-55.12994c-18.796265,0 -30.999817,15.149231 -30.999817,38.71472c0,23.84601 12.343811,37.732851 31.140076,37.732851c8.276001,0 15.28949,-2.945681 21.040588,-7.855171l-4.06781,-5.610839c-5.049744,4.06787 -9.959229,6.3122 -16.83252,6.3122c-13.325684,0 -22.583557,-9.67868 -22.583557,-30.71933c0,-21.18088 9.398132,-31.560881 22.723816,-31.560881c6.733032,0 11.502258,1.963772 16.271423,5.89135l4.067871,-5.470551c-6.171936,-5.330288 -12.484131,-7.434361 -20.760071,-7.434361l0,0.000011z" fill="#000000"/>
     <path id="path4207" d="m922.932861,-19.641451c0,-21.601679 -9.538391,-35.488489 -28.615234,-35.488489c-17.954651,0 -29.316589,15.429779 -29.316589,38.855009c0,23.565461 11.782715,37.592562 31.140137,37.592562c9.67865,0 17.113037,-3.36652 23.986267,-8.977361l-3.787292,-5.19c-6.452454,4.76923 -11.782776,7.29407 -19.778198,7.29407c-12.624329,0 -21.882202,-8.27597 -22.864136,-28.194429l48.954529,0c0.140259,-1.40271 0.280518,-3.647039 0.280518,-5.891361zm-7.995422,-0.420809l-41.239624,0c0.841614,-19.918449 9.398132,-28.334679 20.90033,-28.334679c13.886841,0 20.339294,10.239738 20.339294,26.230618l0,2.104061z" fill="#000000"/>
    </g>
   </g>
  </g>
 </g>
</svg>
