<?xml version="1.0" encoding="UTF-8" standalone="no"?>
<svg
   xmlns:dc="http://purl.org/dc/elements/1.1/"
   xmlns:cc="http://creativecommons.org/ns#"
   xmlns:rdf="http://www.w3.org/1999/02/22-rdf-syntax-ns#"
   xmlns:svg="http://www.w3.org/2000/svg"
   xmlns="http://www.w3.org/2000/svg"
   xmlns:sodipodi="http://sodipodi.sourceforge.net/DTD/sodipodi-0.dtd"
   xmlns:inkscape="http://www.inkscape.org/namespaces/inkscape"
   width="84.666664mm"
   preserveAspectRatio="xMinYMin meet"
   viewBox="0 0 1024 84"
   version="1.1"
   id="svg1033"
   sodipodi:docname="bhack-logo-title-black.svg"
   height="22.225mm"
   inkscape:version="0.92.2 (5c3e80d, 2017-08-06)">
  <defs
     id="defs1037" />
  <sodipodi:namedview
     pagecolor="#ffffff"
     bordercolor="#666666"
     borderopacity="1"
     objecttolerance="10"
     gridtolerance="10"
     guidetolerance="10"
     inkscape:pageopacity="0"
     inkscape:pageshadow="2"
     inkscape:window-width="1680"
     inkscape:window-height="1024"
     id="namedview1035"
     showgrid="false"
     inkscape:zoom="9.1039998"
     inkscape:cx="54.075626"
     inkscape:cy="20.45773"
     inkscape:window-x="1920"
     inkscape:window-y="0"
     inkscape:window-maximized="1"
     inkscape:current-layer="layer1"
     units="mm" />
  <metadata
     id="metadata3044">image/svg+xml<rdf:RDF>
  <cc:Work
     rdf:about="">
    <dc:format>image/svg+xml</dc:format>
    <dc:type
       rdf:resource="http://purl.org/dc/dcmitype/StillImage" />
    <dc:title></dc:title>
  </cc:Work>
</rdf:RDF>
</metadata>
  <g
     inkscape:groupmode="layer"
     id="layer1"
     inkscape:label="SilkS"
     style="display:inline">
    <path
       style="fill:#000000;stroke-width:1.10772228"
       d="m 130.71634,85.46354 c 0,-10e-4 -0.007,7.43e-4 -0.007,0.01143 -0.26511,1.105153 -1.41704,2.550519 -2.91057,3.643841 -3.56976,2.613465 -8.85657,4.543198 -17.29609,6.319845 -10.30106,2.168523 -14.878348,3.838423 -15.590082,5.687834 -0.529158,1.37491 1.765765,3.00019 6.380082,4.52067 4.00876,1.3209 8.84787,2.40915 22.6849,5.09571 1.82595,0.35454 3.98368,0.84092 4.79521,1.08182 0.81152,0.24082 1.62067,0.44528 1.79821,0.45542 0.30576,0.0174 0.31761,-0.74351 0.29975,-13.692914 -0.009,-7.304931 -0.0797,-13.069564 -0.15569,-13.123575 l 9.3e-4,-7.7e-5 z"
       id="path5967" />
    <path
       style="fill:#000000;stroke-width:1.10772228"
       d="m 91.980274,103.36971 v 24.04948 24.0495 h 1.060447 c 1.998574,-0.004 10.281139,-0.36091 12.864049,-0.55231 14.66067,-1.08616 26.87277,-3.96533 34.07923,-8.03924 5.95775,-3.36798 9.00993,-7.47827 9.04862,-12.17846 0.009,-1.14611 -0.0872,-2.06933 -0.29391,-2.73292 -1.74909,-5.61427 -9.49951,-10.35096 -22.36221,-13.67014 -3.65475,-0.94316 -6.08831,-1.4697 -11.42896,-2.46532 -11.90567,-2.21945 -19.749397,-4.9379 -22.304481,-7.73181 z"
       id="path5965" />
    <path
       style="fill:#000000;stroke-width:1.10772228"
       d="m 152.45036,133.15827 -0.35732,1.36647 c -0.7281,2.78559 -2.69718,5.90878 -4.98539,7.89692 -6.3175,5.48878 -18.20556,9.47783 -33.45683,11.22765 -5.5279,0.63425 -15.429792,1.28033 -19.595758,1.28108 l -2.363018,0.0683 c 0,0 -3.046667,0.0616 -6.737489,0.11393 0.05527,0.3373 0.09738,0.58732 0.155629,0.94512 0.3661,2.25093 0.718297,4.13956 0.783846,4.19607 0.06547,0.0567 0.647687,0.29201 1.296785,0.52384 0.649115,0.23184 1.510627,0.5801 1.913422,0.77434 l 0.731963,0.35299 3.394772,-2.57919 c 2.96689,-2.25647 3.462983,-2.58067 3.970952,-2.58486 0.747801,-0.006 1.173908,0.32149 4.241886,3.26806 4.09556,3.93356 4.88622,4.96482 4.60496,5.99533 -0.0641,0.23345 -1.20048,1.8302 -2.52432,3.54708 l -2.40343,3.12007 0.69158,1.42907 c 0.38201,0.78536 0.78583,1.73035 0.89913,2.10092 0.1273,0.41607 0.33014,0.72038 0.53034,0.79705 0.17815,0.0684 2.12556,0.37409 4.32828,0.67759 0.5555,0.0765 0.90469,0.12866 1.31982,0.18788 0.78692,-0.88129 1.97579,-2.21456 3.21029,-3.60402 4.0768,-4.58855 3.48283,-4.11508 5.60783,-4.46374 5.92959,-0.9729 10.76048,-2.37047 15.34227,-4.44096 10.22428,-4.6202 16.01145,-9.26683 18.29889,-14.69503 1.04123,-2.47068 1.1237,-3.26131 1.11239,-10.72661 l -0.0111,-6.77533 h -4.1e-4 z"
       id="path5963" />
    <path
       style="fill:#000000;stroke-width:1.10772228"
       d="m 25.493032,152.3512 0.922234,0.88251 c 0.864035,0.82511 6.313663,5.78248 15.930177,14.49004 0,0 5.24253,4.55218 10.742989,9.51388 0.03091,-0.006 0.120058,-0.0208 0.121089,-0.0228 0.01184,-0.0219 0.277683,-0.70788 0.593582,-1.52022 0.316043,-0.81232 0.702248,-1.71932 0.858807,-2.01552 l 0.282391,-0.53513 -0.876073,-1.16154 c -0.483369,-0.63864 -1.597658,-2.02931 -2.472448,-3.08585 -1.926284,-2.32647 -2.093053,-2.61644 -1.87316,-3.25671 0.247574,-0.72106 1.904396,-2.61868 4.547398,-5.2153 2.63472,-2.58866 3.649149,-3.35839 4.43781,-3.36488 0.553279,-0.004 0.587041,0.0149 4.904734,3.26238 l 2.397561,1.80485 0.749322,-0.37577 c 0.412903,-0.20777 1.279875,-0.57733 1.924857,-0.81984 0.645143,-0.24252 1.216929,-0.48227 1.273781,-0.53521 0.05694,-0.0529 0.280936,-1.4211 0.495624,-3.04035 0.116171,-0.87515 0.222589,-1.62865 0.322778,-2.2888 -3.883662,-0.12644 -8.074603,-0.31885 -8.074603,-0.31885 -3.784978,-0.004 -21.311481,-1.05634 -30.384857,-1.82189 -2.33304,-0.19688 -4.822812,-0.40734 -5.532975,-0.46692 z"
       id="path5961" />
    <path
       style="fill:#000000;stroke-width:1.10772228"
       d="m 152.46185,166.86402 -0.73777,1.91303 c -3.45823,8.97381 -9.68912,15.06283 -20.82897,20.35433 -3.93601,1.86961 -10.14071,4.18716 -14.32224,5.34632 -0.78802,0.21839 -1.52594,0.42831 -1.64257,0.47253 -0.11662,0.0439 -1.66465,-1.1303 -3.44077,-2.61332 -0.34184,-0.28539 -0.79745,-0.6617 -1.19307,-0.99069 -0.67985,0.13049 -1.59173,0.27632 -2.91635,0.47827 -4.33928,0.66149 -4.23016,0.63601 -4.38593,1.03051 -0.0729,0.18437 -0.45506,1.09136 -0.85297,2.01552 l -0.72628,1.67956 0.57067,0.80282 c 0.31353,0.44027 1.46569,1.89355 2.55897,3.23391 1.09326,1.3403 2.02813,2.60163 2.08064,2.80122 0.0522,0.19951 0.049,0.52472 -0.0111,0.72302 -0.18591,0.61566 -1.74996,2.44607 -4.18431,4.89084 -3.217857,3.23169 -4.526132,4.0608 -5.561675,3.52424 -0.17142,-0.0888 -1.462847,-1.04376 -2.870186,-2.11802 -1.407339,-1.07411 -2.816497,-2.1414 -3.135312,-2.37419 l -0.58213,-0.42134 -0.674334,0.35306 c -0.371728,0.19369 -1.275683,0.57921 -2.005609,0.85966 l -1.325654,0.51248 -0.386189,2.92075 c -0.237226,1.80275 -0.422714,3.08551 -0.599295,4.01401 3.826016,-0.42953 6.81813,-0.86548 6.818046,-0.86548 l 0.0066,-0.2505 c 0.0309,0.18356 0.06967,0.26192 0.115284,0.26192 0.468035,0 5.184728,-0.73965 8.236004,-1.29249 7.60886,-1.3787 14.81873,-3.27517 20.56401,-5.40887 5.57131,-2.06914 12.93614,-5.74076 17.85511,-8.90465 6.86124,-4.4131 10.80997,-8.86272 12.55283,-14.13704 0.90878,-2.75024 1.03791,-4.19683 1.03168,-11.77989 l -0.007,-7.03152 h -5.4e-4 z"
       id="path5959" />
    <path
       style="fill:#000000;stroke-width:1.10772228"
       d="m 78.217083,173.54822 c -0.489369,8.1e-4 -0.984688,0.0329 -1.481192,0.0968 -2.844961,0.36557 -4.606464,1.25572 -6.760484,3.4047 -1.21655,1.2136 -1.52802,1.62852 -2.126673,2.88093 -1.585498,3.31688 -1.550458,6.80157 0.09216,10.05483 0.62088,1.2299 0.960493,1.68078 2.172767,2.86382 1.98939,1.94102 3.835034,2.88844 6.397546,3.27382 1.123458,0.16888 3.463153,0.026 4.639525,-0.27904 3.91489,-1.01407 7.17261,-4.31777 8.149473,-8.26126 0.841187,-3.39531 0.0066,-7.12007 -2.190066,-9.78154 -2.267816,-2.74639 -5.467494,-4.26018 -8.893013,-4.25308 z"
       id="path5957" />
    <path
       style="fill:#000000;stroke-width:1.10772228"
       d="m 53.053806,192.67279 c -6.589452,4.97643 -12.714124,9.52531 -12.714124,9.52531 -2.485187,1.86677 -5.389924,4.04713 -6.45512,4.8452 -1.064954,0.798 -4.509282,3.38551 -7.653774,5.75044 -3.144571,2.36492 -5.883735,4.41628 -6.080467,4.55481 -0.196728,0.13853 -0.310359,0.29106 -0.25936,0.34163 0.0514,0.0506 2.909014,0.16815 6.351381,0.26192 6.443643,0.17552 32.633278,0.10555 35.998456,-0.0968 l 1.890485,-0.11379 c 0,0 3.72876,-0.17822 7.728736,-0.40431 -0.155613,-0.78008 -0.386974,-2.08022 -0.610924,-3.5072 -0.32736,-2.0855 -0.656536,-3.93409 -0.731955,-4.11076 -0.08862,-0.20763 -0.489716,-0.44731 -1.135417,-0.67183 -0.549399,-0.19107 -1.433746,-0.53765 -1.965279,-0.76859 l -0.968328,-0.41568 -3.146797,2.40835 c -1.730411,1.32603 -3.275266,2.48155 -3.435061,2.56775 -0.159814,0.0863 -0.544659,0.15686 -0.85874,0.15942 -0.643977,0.006 -0.876995,-0.17713 -4.720252,-3.82605 -2.945633,-2.79661 -4.05668,-4.14117 -4.063247,-4.91916 -0.0078,-0.69199 0.188746,-0.99988 2.449447,-3.90576 0.901039,-1.15809 1.835519,-2.36445 2.074866,-2.676 l 0.43229,-0.5636 -0.628223,-1.29818 c -0.345479,-0.71268 -0.755391,-1.69106 -0.910615,-2.17488 -0.155291,-0.48389 -0.352578,-0.90672 -0.443834,-0.93944 -0.0078,-0.006 -0.105788,-0.0154 -0.144145,-0.0229 v 6e-5 z"
       id="path3255" />
    <path
       id="path4210"
       d="m 655.23507,51.292155 c -5.79019,0 -11.58039,2.895065 -15.01166,7.613032 V 28.66748 l -16.94165,1.822835 v 79.561635 h 15.01159 l 0.85783,-5.46857 c 3.43122,4.5035 8.57809,7.29141 14.90436,7.29141 14.15381,0 22.62468,-12.652691 22.62468,-30.237699 0,-19.086246 -7.39857,-30.344936 -21.44515,-30.344936 z m -6.00466,48.251641 c -3.64565,0 -6.86247,-2.037292 -9.007,-5.468501 V 70.378332 c 2.46621,-4.181818 5.68303,-6.647963 9.75762,-6.647963 5.25404,0 9.11416,3.431215 9.11416,17.906722 0,13.295972 -4.07459,17.906705 -9.86478,17.906705 z"
       inkscape:connector-curvature="0"
       style="font-style:normal;font-weight:normal;font-size:medium;font-family:Sans;fill:#000000;stroke-width:1.10772228" />
    <path
       id="path4212"
       d="M 732.61525,93.53914 V 71.450618 c 0,-13.188819 -7.07694,-20.158463 -23.58967,-20.158463 -6.43356,0 -14.26104,1.501152 -21.44514,4.181817 l 3.86012,11.151463 c 5.68296,-1.930062 11.25869,-3.002293 14.90436,-3.002293 6.96971,0 9.65031,2.03729 9.65031,8.792479 v 2.466211 h -5.79019 c -17.26334,0 -26.6992,6.755259 -26.6992,19.193463 0,10.400925 7.18412,17.799495 18.55003,17.799495 6.75526,0 13.08159,-2.25176 17.15617,-8.5781 2.57338,5.68296 6.96965,7.72025 13.7249,8.2564 l 3.53845,-11.04422 c -2.68068,-0.965074 -3.86014,-2.573457 -3.86014,-6.96973 z m -25.62696,6.219114 c -4.18181,0 -6.64802,-2.680669 -6.64802,-7.184104 0,-5.683026 3.75289,-8.363628 11.47314,-8.363628 h 4.18182 v 10.079232 c -2.03729,3.431207 -5.03958,5.4685 -9.00694,5.4685 z"
       inkscape:connector-curvature="0"
       style="font-style:normal;font-weight:normal;font-size:medium;font-family:Sans;fill:#000000;stroke-width:1.10772228" />
    <path
       id="path4214"
       d="M 762.6201,94.075296 V 28.667558 l -16.94171,1.822835 V 95.7909 c 0,10.50815 5.5758,16.08389 15.01165,16.08389 3.96735,0 8.04194,-0.75063 10.937,-1.93007 l -3.32398,-12.009307 c -0.75054,0.321697 -1.93006,0.536155 -2.78783,0.536155 -1.82283,0 -2.89513,-1.179532 -2.89513,-4.396273 z"
       inkscape:connector-curvature="0"
       style="font-style:normal;font-weight:normal;font-size:medium;font-family:Sans;fill:#000000;stroke-width:1.10772228" />
    <path
       id="path4216"
       d="M 794.45278,94.075296 V 28.667558 l -16.94171,1.822835 V 95.7909 c 0,10.50815 5.5758,16.08389 15.01165,16.08389 3.96735,0 8.04194,-0.75063 10.937,-1.93007 l -3.32398,-12.009307 c -0.75053,0.321697 -1.93006,0.536155 -2.78782,0.536155 -1.82284,0 -2.89514,-1.179532 -2.89514,-4.396273 z"
       inkscape:connector-curvature="0"
       style="font-style:normal;font-weight:normal;font-size:medium;font-family:Sans;fill:#000000;stroke-width:1.10772228" />
    <path
       id="path4218"
       d="M 855.12918,93.53914 V 71.450618 c 0,-13.188819 -7.07687,-20.158463 -23.58968,-20.158463 -6.43356,0 -14.26103,1.501152 -21.44521,4.181817 l 3.86012,11.151463 c 5.68303,-1.930062 11.25876,-3.002293 14.90443,-3.002293 6.96971,0 9.65031,2.03729 9.65031,8.792479 v 2.466211 h -5.79019 c -17.26333,0 -26.69925,6.755259 -26.69925,19.193463 0,10.400925 7.18417,17.799495 18.55008,17.799495 6.75526,0 13.08159,-2.25176 17.15619,-8.5781 2.57337,5.68296 6.96964,7.72025 13.72488,8.2564 l 3.53845,-11.04422 c -2.68067,-0.965074 -3.86013,-2.573457 -3.86013,-6.96973 z m -25.62696,6.219114 c -4.18181,0 -6.64802,-2.680669 -6.64802,-7.184104 0,-5.683026 3.75288,-8.363628 11.47314,-8.363628 h 4.18181 v 10.079232 c -2.03729,3.431207 -5.03958,5.4685 -9.00693,5.4685 z"
       inkscape:connector-curvature="0"
       style="font-style:normal;font-weight:normal;font-size:medium;font-family:Sans;fill:#000000;stroke-width:1.10772228" />
    <path
       id="path4220"
       d="m 899.60946,51.506621 c -6.54079,0 -12.11652,4.717955 -14.68996,12.65267 l -1.39391,-11.044302 h -14.7972 v 56.936961 h 16.94172 V 81.851542 c 1.82283,-8.685317 4.71795,-13.939355 11.79483,-13.939355 1.93007,0 3.32398,0.321683 5.14688,0.750538 l 2.6806,-16.405501 c -1.82283,-0.536148 -3.53844,-0.750603 -5.68296,-0.750603 z"
       inkscape:connector-curvature="0"
       style="font-style:normal;font-weight:normal;font-size:medium;font-family:Sans;fill:#000000;stroke-width:1.10772228" />
    <path
       id="path4222"
       d="M 954.81574,93.53914 V 71.450618 c 0,-13.188819 -7.07687,-20.158463 -23.58968,-20.158463 -6.43356,0 -14.26104,1.501152 -21.44522,4.181817 l 3.86013,11.151463 c 5.68302,-1.930062 11.25875,-3.002293 14.90442,-3.002293 6.96972,0 9.65031,2.03729 9.65031,8.792479 v 2.466211 h -5.79018 c -17.26333,0 -26.69926,6.755259 -26.69926,19.193463 0,10.400925 7.18417,17.799495 18.55009,17.799495 6.75525,0 13.08159,-2.25176 17.15618,-8.5781 2.57337,5.68296 6.96964,7.72025 13.72489,8.2564 l 3.53844,-11.04422 c -2.68066,-0.965074 -3.86012,-2.573457 -3.86012,-6.96973 z m -25.62697,6.219114 c -4.18181,0 -6.64803,-2.680669 -6.64803,-7.184104 0,-5.683026 3.7529,-8.363628 11.47316,-8.363628 h 4.1818 v 10.079232 c -2.03729,3.431207 -5.03958,5.4685 -9.00693,5.4685 z"
       inkscape:connector-curvature="0"
       style="font-style:normal;font-weight:normal;font-size:medium;font-family:Sans;fill:#000000;stroke-width:1.10772228" />
    <path
       id="path4224"
       d="m 1004.1212,107.37127 -5.68295,-10.829831 c -2.25175,1.393991 -4.18182,1.930063 -6.11188,1.930063 -3.53843,0 -5.36126,-1.930063 -5.36126,-7.398555 V 64.909828 h 11.25868 l 1.82281,-11.794839 H 986.96511 V 38.853951 l -16.94172,1.930062 v 12.330976 h -8.04194 v 11.794839 h 8.04194 v 26.37757 c 0,13.403212 6.11188,20.480162 18.65731,20.587392 5.14682,0 11.15146,-1.50122 15.4405,-4.50352 z"
       inkscape:connector-curvature="0"
       style="font-style:normal;font-weight:normal;font-size:medium;font-family:Sans;fill:#000000;stroke-width:1.10772228" />
    <path
       id="path4187"
       d="m 204.55043,125.30592 c -11.65358,0 -20.35492,6.05985 -26.88091,15.22732 V 92.831272 l -9.01211,1.087676 V 208.27941 h 9.01211 v -58.88946 c 6.68137,-9.94436 14.13965,-16.78114 25.17171,-16.78114 9.789,0 15.38273,5.59371 15.38273,18.80112 v 56.86948 h 9.01211 v -58.11253 c 0,-15.38273 -8.07981,-24.86097 -22.68564,-24.86096 z"
       inkscape:connector-curvature="0"
       style="font-style:normal;font-weight:normal;font-size:medium;font-family:Sans;fill:#000000;stroke-width:1.10772228" />
    <path
       id="path4189"
       d="m 309.89631,190.25519 v -39.15603 c 0,-16.62577 -8.07979,-25.79324 -26.57016,-25.79324 -8.54596,0 -16.62577,1.86457 -25.63784,5.43834 l 2.3307,6.83676 c 8.07982,-2.95223 15.53809,-4.66144 22.0641,-4.66144 13.51816,0 18.8011,5.74911 18.8011,18.64572 v 7.76907 h -15.5381 c -20.82106,0 -33.71766,9.32288 -33.71766,26.41478 0,14.45046 9.47825,24.23945 25.17169,24.23945 10.87669,0 19.57803,-4.35071 25.32711,-13.67352 1.24308,8.70134 5.43835,12.27507 12.58587,13.67352 l 2.01996,-6.37063 c -4.35067,-1.70918 -6.83677,-4.3507 -6.83677,-13.36278 z m -31.54236,12.4305 c -10.72129,0 -17.0919,-6.21525 -17.0919,-17.40267 0,-12.89665 9.16747,-19.26727 25.4825,-19.26727 h 14.13966 v 22.37486 c -5.12758,9.16748 -12.27511,14.29508 -22.53026,14.29508 z"
       inkscape:connector-curvature="0"
       style="font-style:normal;font-weight:normal;font-size:medium;font-family:Sans;fill:#000000;stroke-width:1.10772228" />
    <path
       id="path4191"
       d="m 370.36383,125.30592 c -20.82107,0 -34.33919,16.78114 -34.33919,42.88515 0,26.41476 13.67352,41.79753 34.49456,41.79753 9.16751,0 16.93654,-3.263 23.30716,-8.70135 l -4.50604,-6.21525 c -5.59371,4.50607 -11.03206,6.99216 -18.64572,6.99216 -14.76119,0 -25.01635,-10.72129 -25.01635,-34.02849 0,-23.46253 10.41052,-34.96069 25.17172,-34.96069 7.45829,0 12.74124,2.17532 18.02421,6.52598 l 4.50604,-6.05985 c -6.83675,-5.90448 -13.82892,-8.23521 -22.99639,-8.23521 z"
       inkscape:connector-curvature="0"
       style="font-style:normal;font-weight:normal;font-size:medium;font-family:Sans;fill:#000000;stroke-width:1.10772228" />
    <path
       id="path4193"
       d="M 424.39758,208.27941 V 92.831305 l -9.01207,1.087676 V 208.27941 Z m 11.34282,-44.90514 34.18382,-36.35914 h -10.41051 l -34.18383,36.82531 37.29145,44.43897 h 10.87666 z"
       inkscape:connector-curvature="0"
       style="font-style:normal;font-weight:normal;font-size:medium;font-family:Sans;fill:#000000;stroke-width:1.10772228" />
    <path
       id="path4195"
       d="m 547.3841,164.61731 c 0,-23.92866 -10.56593,-39.31139 -31.69774,-39.31139 -19.88877,0 -32.47464,17.09191 -32.47464,43.04056 0,26.10398 13.05201,41.64212 34.49459,41.64212 10.72129,0 18.9565,-3.72917 26.57016,-9.94443 l -4.19527,-5.74908 c -7.14756,5.28299 -13.05201,8.07981 -21.90871,8.07981 -13.98432,0 -24.23948,-9.16748 -25.32712,-31.2316 h 54.22799 c 0.15537,-1.55381 0.31074,-4.03991 0.31074,-6.52599 z m -8.85672,-0.46614 h -45.68204 c 0.9323,-22.06411 10.41055,-31.38696 23.15179,-31.38696 15.38273,0 22.53025,11.34279 22.53025,29.05624 z"
       inkscape:connector-curvature="0"
       style="font-style:normal;font-weight:normal;font-size:medium;font-family:Sans;fill:#000000;stroke-width:1.10772228" />
    <path
       id="path4197"
       d="m 604.73675,125.30592 c -11.3428,0 -18.64577,6.52598 -22.9964,19.88876 l -0.7769,-18.17959 h -7.76907 v 81.26432 h 9.01214 v -49.72195 c 4.35064,-16.62578 10.41052,-24.70558 21.75332,-24.70558 2.79682,0 4.81681,0.31074 7.14752,0.93227 l 1.70919,-8.54596 c -2.17535,-0.62151 -4.97218,-0.93228 -8.07981,-0.93228 z"
       inkscape:connector-curvature="0"
       style="font-style:normal;font-weight:normal;font-size:medium;font-family:Sans;fill:#000000;stroke-width:1.10772228" />
    <path
       id="path4199"
       d="m 649.5302,125.30592 c -15.3827,0 -27.03629,8.8567 -27.03629,21.1318 0,11.4982 6.99215,17.86882 24.2394,22.37489 16.93657,4.6614 21.44258,8.23517 21.44258,18.17959 0,9.78898 -8.23516,15.3827 -20.04414,15.3827 -9.94434,0 -17.09188,-3.10763 -23.77329,-8.70135 l -5.12755,5.90451 c 6.99217,5.90445 15.84887,10.41054 29.05628,10.41054 16.15961,0 29.36701,-8.54598 29.36701,-23.61794 0,-13.82892 -8.3906,-19.88877 -26.10402,-24.55021 -14.60586,-3.88454 -19.73339,-7.30289 -19.73339,-15.38273 0,-8.39057 7.30289,-13.67351 18.02414,-13.67351 8.23524,0 14.29506,2.48609 21.28721,7.61366 l 4.35071,-6.05984 c -7.6137,-5.9045 -15.53814,-9.01213 -25.94865,-9.01213 z"
       inkscape:connector-curvature="0"
       style="font-style:normal;font-weight:normal;font-size:medium;font-family:Sans;fill:#000000;stroke-width:1.10772228" />
    <path
       id="path4201"
       d="m 735.43161,125.30592 c -10.41052,0 -19.11185,5.28294 -25.01637,13.51814 l -0.77691,-11.80897 h -7.769 v 113.11742 l 9.01208,-1.24308 v -40.08827 c 5.12761,6.526 12.89661,11.18744 23.15176,11.18744 20.19957,0 30.92083,-17.09195 30.92083,-42.72981 0,-26.25942 -9.47825,-41.95287 -29.52239,-41.95287 z m -3.10762,77.06898 c -9.32288,0 -16.47041,-4.81681 -21.44258,-12.43047 V 146.7485 c 5.59372,-7.76907 12.4305,-13.98429 22.84103,-13.98429 14.13968,0 21.59795,11.34279 21.59795,34.49458 0,23.30714 -8.0798,35.11611 -22.9964,35.11611 z"
       inkscape:connector-curvature="0"
       style="font-style:normal;font-weight:normal;font-size:medium;font-family:Sans;fill:#000000;stroke-width:1.10772228" />
    <path
       id="path4203"
       d="m 842.50126,190.25519 v -39.15603 c 0,-16.62577 -8.07981,-25.79324 -26.57019,-25.79324 -8.54592,0 -16.62577,1.86457 -25.63786,5.43834 l 2.33073,6.83676 c 8.0798,-2.95223 15.53813,-4.66144 22.06412,-4.66144 13.51814,0 18.80111,5.74911 18.80111,18.64572 v 7.76907 h -15.53813 c -20.82103,0 -33.71771,9.32288 -33.71771,26.41478 0,14.45046 9.47824,24.23945 25.17175,24.23945 10.87669,0 19.57802,-4.35071 25.32711,-13.67352 1.24308,8.70134 5.43834,12.27507 12.58587,13.67352 l 2.01998,-6.37063 c -4.3507,-1.70918 -6.83679,-4.3507 -6.83678,-13.36278 z m -31.54237,12.4305 c -10.72126,0 -17.09188,-6.21525 -17.09188,-17.40267 0,-12.89665 9.16744,-19.26727 25.48249,-19.26727 h 14.13967 v 22.37486 c -5.1276,9.16748 -12.27513,14.29508 -22.53028,14.29508 z"
       inkscape:connector-curvature="0"
       style="font-style:normal;font-weight:normal;font-size:medium;font-family:Sans;fill:#000000;stroke-width:1.10772228" />
    <path
       id="path4205"
       d="m 902.9688,125.30592 c -20.82104,0 -34.33919,16.78114 -34.33919,42.88515 0,26.41476 13.67352,41.79753 34.49455,41.79753 9.16751,0 16.93651,-3.263 23.30713,-8.70135 l -4.506,-6.21525 c -5.59371,4.50607 -11.03206,6.99216 -18.64576,6.99216 -14.76115,0 -25.01631,-10.72129 -25.01631,-34.02849 0,-23.46253 10.41053,-34.96069 25.17168,-34.96069 7.45833,0 12.74131,2.17532 18.02422,6.52598 l 4.50607,-6.05985 c -6.83679,-5.90448 -13.82895,-8.23521 -22.99639,-8.23521 z"
       inkscape:connector-curvature="0"
       style="font-style:normal;font-weight:normal;font-size:medium;font-family:Sans;fill:#000000;stroke-width:1.10772228" />
    <path
       id="path4207"
       d="m 1004.1194,164.61731 c 0,-23.92866 -10.5659,-39.31139 -31.69775,-39.31139 -19.88876,0 -32.47464,17.09191 -32.47464,43.04056 0,26.10398 13.05197,41.64212 34.49462,41.64212 10.72126,0 18.9565,-3.72917 26.57017,-9.94443 l -4.19531,-5.74908 c -7.14752,5.28299 -13.05205,8.07981 -21.90875,8.07981 -13.98425,0 -24.2394,-9.16748 -25.32711,-31.2316 h 54.22797 c 0.1554,-1.55381 0.3108,-4.03991 0.3108,-6.52599 z m -8.85672,-0.46614 h -45.68206 c 0.93228,-22.06411 10.41053,-31.38696 23.15177,-31.38696 15.38276,0 22.53029,11.34279 22.53029,29.05624 z"
       inkscape:connector-curvature="0"
       style="font-style:normal;font-weight:normal;font-size:medium;font-family:Sans;fill:#000000;stroke-width:1.10772228" />
  </g>
</svg>
