<?xml version="1.0" encoding="UTF-8" standalone="no"?>
<!-- Created with Inkscape (http://www.inkscape.org/) -->

<svg
   xmlns:dc="http://purl.org/dc/elements/1.1/"
   xmlns:cc="http://creativecommons.org/ns#"
   xmlns:rdf="http://www.w3.org/1999/02/22-rdf-syntax-ns#"
   xmlns:svg="http://www.w3.org/2000/svg"
   xmlns="http://www.w3.org/2000/svg"
   xmlns:sodipodi="http://sodipodi.sourceforge.net/DTD/sodipodi-0.dtd"
   xmlns:inkscape="http://www.inkscape.org/namespaces/inkscape"
   width="1024"
   height="256"
   id="svg3039"
   version="1.1"
   inkscape:version="0.91 r13725"
   sodipodi:docname="bhack-tshirt-white.svg">
  <defs
     id="defs3041" />
  <sodipodi:namedview
     id="base"
     pagecolor="#000000"
     bordercolor="#666666"
     borderopacity="1.0"
     inkscape:pageopacity="0"
     inkscape:pageshadow="2"
     inkscape:zoom="0.69999999"
     inkscape:cx="494.33912"
     inkscape:cy="223.5149"
     inkscape:document-units="px"
     inkscape:current-layer="layer1"
     showgrid="false"
     inkscape:window-width="1280"
     inkscape:window-height="739"
     inkscape:window-x="0"
     inkscape:window-y="24"
     inkscape:window-maximized="1" />
  <metadata
     id="metadata3044">
    <rdf:RDF>
      <cc:Work
         rdf:about="">
        <dc:format>image/svg+xml</dc:format>
        <dc:type
           rdf:resource="http://purl.org/dc/dcmitype/StillImage" />
        <dc:title></dc:title>
      </cc:Work>
    </rdf:RDF>
  </metadata>
  <g
     inkscape:label="Layer 1"
     inkscape:groupmode="layer"
     id="layer1"
     transform="translate(0,-796.36217)">
    <g
       id="g4226"
       transform="matrix(1.1077223,0,0,1.1077223,-18.233922,179.97453)">
      <path
         inkscape:export-ydpi="7.9120874"
         inkscape:export-xdpi="7.9120874"
         inkscape:export-filename="/home/firnsy/Downloads/bhack.png"
         inkscape:connector-curvature="0"
         id="path3255"
         d="m 134.46535,627.82087 c 0,-9.1e-4 -0.006,7e-4 -0.006,0.0103 -0.23934,0.99771 -1.27924,2.3025 -2.62753,3.28952 -3.22261,2.35927 -7.9953,4.10137 -15.6141,5.70523 -9.29932,1.95765 -13.43148,3.46514 -14.074,5.13473 -0.4777,1.24119 1.59405,2.70844 5.75964,4.08105 3.61892,1.19247 7.98744,2.17485 20.47887,4.60017 1.64838,0.32003 3.59629,0.75912 4.32889,0.97658 0.7326,0.21743 1.46307,0.402 1.62333,0.41117 0.27604,0.0157 0.28674,-0.67119 0.27061,-12.36136 -0.008,-6.5945 -0.0719,-11.79853 -0.14055,-11.84735 z m -34.96911,16.16485 0,21.71076 0,21.71076 0.95732,0 c 1.80422,-0.004 9.28133,-0.32582 11.61306,-0.49857 13.23497,-0.98056 24.25949,-3.57974 30.76513,-7.25749 5.37839,-3.04044 8.13377,-6.75103 8.16868,-10.99415 0.008,-1.03466 -0.0787,-1.86811 -0.26533,-2.46712 -1.57899,-5.06829 -8.5757,-9.34437 -20.18755,-12.3408 -3.29934,-0.85141 -5.49625,-1.32679 -10.31754,-2.22556 -10.74788,-2.00363 -17.82883,-4.45771 -20.13544,-6.97994 l -0.59833,-0.65789 z m 54.58958,26.89173 -0.32257,1.23357 c -0.65731,2.51475 -2.43489,5.33421 -4.50058,7.12899 -5.70315,4.95503 -16.43514,8.55613 -30.20327,10.1358 -4.99033,0.57254 -13.9293,1.1558 -17.69014,1.15646 l -2.13322,0.0617 c 0,0 -2.75039,0.0556 -6.08229,0.10279 0.0499,0.30455 0.0879,0.53023 0.14049,0.85322 0.3305,2.03207 0.64845,3.737 0.70762,3.78807 0.0591,0.0511 0.5847,0.26359 1.17068,0.47288 0.58599,0.20927 1.36372,0.52367 1.72735,0.69902 l 0.66078,0.31866 3.06464,-2.32836 c 2.67837,-2.03702 3.12622,-2.32971 3.58479,-2.33348 0.67508,-0.005 1.05975,0.29023 3.82938,2.95027 3.69728,3.551 4.41105,4.48194 4.15714,5.41228 -0.0579,0.21077 -1.08374,1.65221 -2.27884,3.20212 l -2.1697,2.81665 0.62432,1.2901 c 0.34486,0.709 0.70941,1.56211 0.8117,1.8966 0.11493,0.37561 0.29803,0.65037 0.47876,0.71958 0.16083,0.0617 1.91886,0.33768 3.90738,0.61165 0.50147,0.0691 0.8167,0.11619 1.19146,0.16962 0.71041,-0.79556 1.78366,-1.99916 2.8981,-3.25354 3.68036,-4.14233 3.14414,-3.7149 5.06249,-4.02965 5.35296,-0.87829 9.71406,-2.13997 13.85029,-4.00908 9.23,-4.17087 14.4544,-8.36568 16.51938,-13.26597 0.93998,-2.23046 1.01443,-2.94417 1.00422,-9.68351 l -0.01,-6.11643 z m -114.61116,17.32645 0.83255,0.7967 c 0.78,0.74489 5.69967,5.22019 14.38102,13.08094 0,0 4.73271,4.10949 9.69827,8.5887 0.0279,-0.005 0.10837,-0.0188 0.1093,-0.0206 0.0107,-0.0197 0.25069,-0.63901 0.53586,-1.37233 0.28532,-0.73333 0.63397,-1.55214 0.7753,-1.81952 l 0.25492,-0.48314 -0.79087,-1.04854 c -0.43636,-0.57656 -1.44229,-1.832 -2.23201,-2.78579 -1.73896,-2.10024 -1.88951,-2.36199 -1.691,-2.94001 0.2235,-0.65092 1.7192,-2.36401 4.10518,-4.7081 2.3785,-2.33692 3.29428,-3.0318 4.00625,-3.03766 0.49947,-0.004 0.52995,0.0134 4.42776,2.94513 l 2.16441,1.62934 0.67644,-0.33924 c 0.37276,-0.18755 1.15541,-0.52122 1.73768,-0.74014 0.58241,-0.2189 1.09859,-0.43535 1.14991,-0.48314 0.0514,-0.0477 0.25362,-1.28288 0.44743,-2.74469 0.10486,-0.79003 0.20094,-1.47025 0.29139,-2.06621 -3.50599,-0.11413 -7.28938,-0.28784 -7.28938,-0.28784 -3.4169,-0.004 -19.23901,-0.95362 -27.43003,-1.64475 -2.10616,-0.17772 -4.35381,-0.36774 -4.99491,-0.42147 l -1.16547,-0.0976 z m 114.62152,13.10151 -0.66602,1.727 c -3.12194,8.10114 -8.74688,13.59804 -18.80342,18.37497 -3.55325,1.68781 -9.15456,3.77994 -12.92945,4.82639 -0.71139,0.19713 -1.37755,0.38667 -1.48284,0.42655 -0.10528,0.0397 -1.50277,-1.02034 -3.10617,-2.35917 -0.30859,-0.25765 -0.7199,-0.59736 -1.07704,-0.89432 -0.61374,0.1178 -1.43694,0.24944 -2.63275,0.43174 -3.9173,0.59717 -3.81879,0.57419 -3.95941,0.9303 -0.0658,0.16644 -0.41081,0.98523 -0.77002,1.81949 l -0.65565,1.51627 0.51517,0.7247 c 0.28304,0.39749 1.32316,1.70944 2.31012,2.91948 0.98694,1.20996 1.8309,2.3486 1.8783,2.52878 0.0471,0.18012 0.0442,0.47369 -0.01,0.65274 -0.16783,0.55579 -1.57978,2.20817 -3.7774,4.41517 -2.90493,2.91747 -4.08598,3.66593 -5.02082,3.18153 -0.15475,-0.0801 -1.32059,-0.94224 -2.59107,-1.91203 -1.27048,-0.96969 -2.5426,-1.93318 -2.83041,-2.1433 l -0.52552,-0.38036 -0.60876,0.31872 c -0.33558,0.17488 -1.15163,0.52289 -1.81057,0.77607 l -1.19674,0.46264 -0.34863,2.63669 c -0.21416,1.62743 -0.38161,2.78549 -0.54102,3.62365 3.45395,-0.38773 6.15509,-0.78132 6.15502,-0.78132 l 0.006,-0.22608 c 0.0279,0.16568 0.0629,0.2364 0.10407,0.2364 0.42252,0 4.68053,-0.6677 7.43508,-1.16677 6.86893,-1.24462 13.37766,-2.95667 18.56423,-4.88288 5.02952,-1.86791 11.67815,-5.18248 16.11876,-8.03869 6.19401,-3.98399 9.75874,-8.00088 11.33211,-12.76226 0.8204,-2.48284 0.93698,-3.7887 0.93134,-10.63437 l -0.006,-6.34773 z m -67.02471,6.0342 c -0.44178,7.1e-4 -0.88893,0.0297 -1.33715,0.0874 -2.5683,0.32999 -4.1585,1.13362 -6.10305,3.07363 -1.09824,1.09559 -1.37942,1.47013 -1.91986,2.60077 -1.43131,2.99429 -1.39968,6.1401 0.0832,9.07698 0.5605,1.11031 0.86709,1.51734 1.96147,2.58536 1.79593,1.75228 3.46209,2.60756 5.77541,2.95541 1.0142,0.1525 3.12637,0.0235 4.18834,-0.25186 3.53418,-0.91546 6.4751,-3.89792 7.35697,-7.45791 0.75938,-3.06511 0.006,-6.42766 -1.97709,-8.83029 -2.04728,-2.47932 -4.9358,-3.84592 -8.0282,-3.83947 z m -22.71623,17.26476 c -5.94865,4.49248 -11.47772,8.59901 -11.47772,8.59901 -2.24351,1.68523 -4.86577,3.65355 -5.82738,4.374 -0.96139,0.72045 -4.07077,3.05631 -6.90947,5.19123 -2.83877,2.13495 -5.31156,3.98685 -5.48916,4.1119 -0.1776,0.12507 -0.28018,0.26278 -0.23414,0.30842 0.0464,0.0457 2.62612,0.15177 5.73373,0.23644 5.81702,0.15842 29.4598,0.0953 32.49773,-0.0874 l 1.70664,-0.10275 c 0,0 3.36615,-0.16088 6.97714,-0.36498 -0.14048,-0.70422 -0.34934,-1.87795 -0.55151,-3.16613 -0.29553,-1.8827 -0.59269,-3.55153 -0.66078,-3.71101 -0.08,-0.18742 -0.44209,-0.4038 -1.025,-0.6065 -0.49597,-0.17247 -1.29432,-0.48535 -1.77416,-0.69386 l -0.87416,-0.37523 -2.84078,2.17415 c -1.56214,1.1971 -2.95676,2.24025 -3.10102,2.31806 -0.14427,0.0779 -0.49169,0.14157 -0.77523,0.14392 -0.58135,0.005 -0.79171,-0.15993 -4.26122,-3.45397 -2.65918,-2.52467 -3.66218,-3.7385 -3.66811,-4.44084 -0.007,-0.62467 0.17039,-0.90262 2.21125,-3.5259 0.81341,-1.04549 1.65702,-2.13455 1.87309,-2.41579 l 0.39025,-0.50882 -0.56713,-1.17189 c -0.31188,-0.64337 -0.68193,-1.52665 -0.82206,-1.96341 -0.14019,-0.43681 -0.31829,-0.81852 -0.40067,-0.84808 -0.007,-0.005 -0.0955,-0.0139 -0.13013,-0.0206 z"
         style="fill:#ffffff;fill-opacity:1" />
      <g
         id="flowRoot2983"
         style="font-style:normal;font-weight:normal;font-size:96.79850006px;line-height:125%;font-family:Sans;letter-spacing:0px;word-spacing:0px;fill:#ffffff;fill-opacity:1;stroke:none">
        <path
           id="path4210"
           style="font-style:normal;font-variant:normal;font-weight:bold;font-stretch:normal;font-family:'Fira Sans';-inkscape-font-specification:'Fira Sans Bold';fill:#ffffff"
           d="m 607.97637,596.97255 c -5.22712,0 -10.45424,2.61356 -13.55179,6.87269 l 0,-27.29718 -15.29417,1.64558 0,71.82449 13.55179,0 0.77439,-4.93673 c 3.09755,4.06554 7.74388,6.5823 13.45499,6.5823 12.7774,0 20.42449,-11.42222 20.42449,-27.29718 0,-17.23013 -6.6791,-27.39397 -19.3597,-27.39397 z m -5.42072,43.55932 c -3.29115,0 -6.1951,-1.83917 -8.13107,-4.93672 l 0,-21.39247 c 2.22636,-3.77514 5.13032,-6.00151 8.80866,-6.00151 4.74313,0 8.22787,3.09756 8.22787,16.16535 0,12.00302 -3.67834,16.16535 -8.90546,16.16535 z"
           inkscape:connector-curvature="0" />
        <path
           id="path4212"
           style="font-style:normal;font-variant:normal;font-weight:bold;font-stretch:normal;font-family:'Fira Sans';-inkscape-font-specification:'Fira Sans Bold';fill:#ffffff"
           d="m 677.83161,635.11116 0,-19.94049 c 0,-11.90622 -6.3887,-18.19812 -21.29567,-18.19812 -5.80791,0 -12.8742,1.35518 -19.3597,3.77514 l 3.48475,10.06704 c 5.13032,-1.74237 10.16384,-2.71036 13.45499,-2.71036 6.2919,0 8.71186,1.83918 8.71186,7.93748 l 0,2.22637 -5.22712,0 c -15.58455,0 -24.10282,6.0983 -24.10282,17.32693 0,9.38945 6.4855,16.06855 16.74614,16.06855 6.0983,0 11.80941,-2.03277 15.48776,-7.74388 2.32316,5.13032 6.2919,6.96949 12.39021,7.45348 l 3.19435,-9.97024 c -2.41997,-0.87119 -3.48475,-2.32317 -3.48475,-6.2919 z m -23.13484,5.61431 c -3.77514,0 -6.00151,-2.41996 -6.00151,-6.4855 0,-5.13032 3.38795,-7.55028 10.35744,-7.55028 l 3.77514,0 0,9.09906 c -1.83917,3.09755 -4.54953,4.93672 -8.13107,4.93672 z"
           inkscape:connector-curvature="0" />
        <path
           id="path4214"
           style="font-style:normal;font-variant:normal;font-weight:bold;font-stretch:normal;font-family:'Fira Sans';-inkscape-font-specification:'Fira Sans Bold';fill:#ffffff"
           d="m 704.91855,635.59515 0,-59.04709 -15.29416,1.64558 0,58.95028 c 0,9.48626 5.03352,14.51978 13.55179,14.51978 3.58154,0 7.25988,-0.67759 9.87344,-1.74237 l -3.00075,-10.84144 c -0.67759,0.2904 -1.74237,0.484 -2.51676,0.484 -1.64557,0 -2.61356,-1.06479 -2.61356,-3.96874 z"
           inkscape:connector-curvature="0" />
        <path
           id="path4216"
           style="font-style:normal;font-variant:normal;font-weight:bold;font-stretch:normal;font-family:'Fira Sans';-inkscape-font-specification:'Fira Sans Bold';fill:#ffffff"
           d="m 733.65561,635.59515 0,-59.04709 -15.29416,1.64558 0,58.95028 c 0,9.48626 5.03352,14.51978 13.55179,14.51978 3.58154,0 7.25989,-0.67759 9.87344,-1.74237 l -3.00075,-10.84144 c -0.67759,0.2904 -1.74237,0.484 -2.51676,0.484 -1.64557,0 -2.61356,-1.06479 -2.61356,-3.96874 z"
           inkscape:connector-curvature="0" />
        <path
           id="path4218"
           style="font-style:normal;font-variant:normal;font-weight:bold;font-stretch:normal;font-family:'Fira Sans';-inkscape-font-specification:'Fira Sans Bold';fill:#ffffff"
           d="m 788.43147,635.11116 0,-19.94049 c 0,-11.90622 -6.3887,-18.19812 -21.29567,-18.19812 -5.80791,0 -12.8742,1.35518 -19.3597,3.77514 l 3.48474,10.06704 c 5.13032,-1.74237 10.16385,-2.71036 13.455,-2.71036 6.2919,0 8.71186,1.83918 8.71186,7.93748 l 0,2.22637 -5.22712,0 c -15.58456,0 -24.10283,6.0983 -24.10283,17.32693 0,9.38945 6.4855,16.06855 16.74615,16.06855 6.0983,0 11.80941,-2.03277 15.48776,-7.74388 2.32316,5.13032 6.2919,6.96949 12.3902,7.45348 l 3.19435,-9.97024 c -2.41996,-0.87119 -3.48474,-2.32317 -3.48474,-6.2919 z m -23.13484,5.61431 c -3.77515,0 -6.00151,-2.41996 -6.00151,-6.4855 0,-5.13032 3.38795,-7.55028 10.35744,-7.55028 l 3.77514,0 0,9.09906 c -1.83917,3.09755 -4.54953,4.93672 -8.13107,4.93672 z"
           inkscape:connector-curvature="0" />
        <path
           id="path4220"
           style="font-style:normal;font-variant:normal;font-weight:bold;font-stretch:normal;font-family:'Fira Sans';-inkscape-font-specification:'Fira Sans Bold';fill:#ffffff"
           d="m 828.5862,597.16614 c -5.90471,0 -10.93823,4.25914 -13.26139,11.42223 l -1.25838,-9.97025 -13.3582,0 0,51.40001 15.29417,0 0,-25.45801 c 1.64557,-7.84068 4.25913,-12.58381 10.64783,-12.58381 1.74237,0 3.00075,0.2904 4.64633,0.67759 l 2.41996,-14.81017 c -1.64557,-0.48399 -3.19435,-0.67759 -5.13032,-0.67759 z"
           inkscape:connector-curvature="0" />
        <path
           id="path4222"
           style="font-style:normal;font-variant:normal;font-weight:bold;font-stretch:normal;font-family:'Fira Sans';-inkscape-font-specification:'Fira Sans Bold';fill:#ffffff"
           d="m 878.42381,635.11116 0,-19.94049 c 0,-11.90622 -6.3887,-18.19812 -21.29567,-18.19812 -5.80791,0 -12.8742,1.35518 -19.3597,3.77514 l 3.48474,10.06704 c 5.13032,-1.74237 10.16385,-2.71036 13.455,-2.71036 6.2919,0 8.71186,1.83918 8.71186,7.93748 l 0,2.22637 -5.22712,0 c -15.58456,0 -24.10283,6.0983 -24.10283,17.32693 0,9.38945 6.4855,16.06855 16.74615,16.06855 6.0983,0 11.80941,-2.03277 15.48776,-7.74388 2.32316,5.13032 6.2919,6.96949 12.3902,7.45348 l 3.19435,-9.97024 c -2.41996,-0.87119 -3.48474,-2.32317 -3.48474,-6.2919 z m -23.13484,5.61431 c -3.77515,0 -6.00151,-2.41996 -6.00151,-6.4855 0,-5.13032 3.38795,-7.55028 10.35744,-7.55028 l 3.77514,0 0,9.09906 c -1.83917,3.09755 -4.54953,4.93672 -8.13107,4.93672 z"
           inkscape:connector-curvature="0" />
        <path
           id="path4224"
           style="font-style:normal;font-variant:normal;font-weight:bold;font-stretch:normal;font-family:'Fira Sans';-inkscape-font-specification:'Fira Sans Bold';fill:#ffffff"
           d="m 922.9345,647.59816 -5.13032,-9.77665 c -2.03276,1.25838 -3.77514,1.74238 -5.51751,1.74238 -3.19435,0 -4.83993,-1.74238 -4.83993,-6.6791 l 0,-23.61883 10.16385,0 1.64557,-10.64784 -11.80942,0 0,-12.8742 -15.29416,1.74237 0,11.13183 -7.25989,0 0,10.64784 7.25989,0 0,23.81243 c 0,12.09981 5.51752,18.48851 16.84294,18.58531 4.64633,0 10.06704,-1.35518 13.93898,-4.06554 z"
           inkscape:connector-curvature="0" />
      </g>
      <g
         id="flowRoot3775"
         style="font-style:normal;font-weight:normal;font-size:140.27075195px;line-height:125%;font-family:Sans;letter-spacing:0px;word-spacing:0px;fill:#ffffff;fill-opacity:1;stroke:none"
         transform="translate(-4.0406102,214.15234)">
        <path
           id="path4187"
           style="font-style:normal;font-variant:normal;font-weight:300;font-stretch:normal;font-family:'Fira Sans';-inkscape-font-specification:'Fira Sans Light';fill:#ffffff"
           d="m 205.15992,449.63636 c -10.52031,0 -18.37547,5.47056 -24.26684,13.74653 l 0,-43.06312 -8.13571,0.9819 0,103.23927 8.13571,0 0,-53.16262 c 6.03164,-8.97732 12.76463,-15.14924 22.72386,-15.14924 8.83705,0 13.8868,5.04975 13.8868,16.97276 l 0,51.3391 8.13571,0 0,-52.46126 c 0,-13.88681 -7.29408,-22.44332 -20.47953,-22.44332 z"
           inkscape:connector-curvature="0" />
        <path
           id="path4189"
           style="font-style:normal;font-variant:normal;font-weight:300;font-stretch:normal;font-family:'Fira Sans';-inkscape-font-specification:'Fira Sans Light';fill:#ffffff"
           d="m 300.26129,508.26953 0,-35.34823 c 0,-15.00897 -7.29408,-23.28494 -23.9863,-23.28494 -7.71489,0 -15.00897,1.68325 -23.14467,4.90947 l 2.10406,6.17192 c 7.29408,-2.66515 14.02707,-4.20813 19.91845,-4.20813 12.20355,0 16.97276,5.19002 16.97276,16.83249 l 0,7.01354 -14.02708,0 c -18.79628,0 -30.43875,8.41625 -30.43875,23.84603 0,13.04518 8.55651,21.88224 22.72386,21.88224 9.81895,0 17.67411,-3.92758 22.86413,-12.34383 1.12217,7.85516 4.90948,11.08139 11.36193,12.34383 l 1.82352,-5.7511 c -3.92758,-1.54298 -6.17191,-3.92758 -6.17191,-12.06329 z m -28.47496,11.22166 c -9.67868,0 -15.42979,-5.61083 -15.42979,-15.71032 0,-11.64247 8.27598,-17.39358 23.00441,-17.39358 l 12.76464,0 0,20.19899 c -4.62894,8.27598 -11.08139,12.90491 -20.33926,12.90491 z"
           inkscape:connector-curvature="0" />
        <path
           id="path4191"
           style="font-style:normal;font-variant:normal;font-weight:300;font-stretch:normal;font-family:'Fira Sans';-inkscape-font-specification:'Fira Sans Light';fill:#ffffff"
           d="m 354.84853,449.63636 c -18.79628,0 -30.99983,15.14924 -30.99983,38.71473 0,23.84602 12.34382,37.73283 31.1401,37.73283 8.27598,0 15.28952,-2.94569 21.04062,-7.85516 l -4.06786,-5.61083 c -5.04974,4.06785 -9.95922,6.31218 -16.83249,6.31218 -13.32572,0 -22.58359,-9.67868 -22.58359,-30.7193 0,-21.18088 9.39814,-31.56091 22.72386,-31.56091 6.733,0 11.50221,1.96379 16.27141,5.89137 l 4.06785,-5.47056 c -6.17191,-5.33029 -12.48409,-7.43435 -20.76007,-7.43435 z"
           inkscape:connector-curvature="0" />
        <path
           id="path4193"
           style="font-style:normal;font-variant:normal;font-weight:300;font-stretch:normal;font-family:'Fira Sans';-inkscape-font-specification:'Fira Sans Light';fill:#ffffff"
           d="m 403.62769,524.54094 0,-104.22117 -8.1357,0.9819 0,103.23927 8.1357,0 z m 10.23977,-40.53825 30.85956,-32.82335 -9.39814,0 -30.85956,33.24416 33.66498,40.11744 9.81895,0 -34.08579,-40.53825 z"
           inkscape:connector-curvature="0" />
        <path
           id="path4195"
           style="font-style:normal;font-variant:normal;font-weight:300;font-stretch:normal;font-family:'Fira Sans';-inkscape-font-specification:'Fira Sans Light';fill:#ffffff"
           d="m 514.65417,485.12486 c 0,-21.6017 -9.53841,-35.4885 -28.61523,-35.4885 -17.95466,0 -29.31659,15.42978 -29.31659,38.855 0,23.56548 11.78275,37.59256 31.14011,37.59256 9.67868,0 17.11303,-3.3665 23.9863,-8.97733 l -3.78731,-5.19002 c -6.45246,4.76921 -11.78274,7.29408 -19.77818,7.29408 -12.62436,0 -21.88223,-8.27597 -22.86413,-28.19442 l 48.95449,0 c 0.14027,-1.40271 0.28054,-3.64704 0.28054,-5.89137 z m -7.99543,-0.42081 -41.2396,0 c 0.84162,-19.91845 9.39814,-28.3347 20.90034,-28.3347 13.88681,0 20.33926,10.23977 20.33926,26.23063 l 0,2.10407 z"
           inkscape:connector-curvature="0" />
        <path
           id="path4197"
           style="font-style:normal;font-variant:normal;font-weight:300;font-stretch:normal;font-family:'Fira Sans';-inkscape-font-specification:'Fira Sans Light';fill:#ffffff"
           d="m 566.42942,449.63636 c -10.23977,0 -16.83249,5.89137 -20.76007,17.95465 l -0.70136,-16.41167 -7.01354,0 0,73.3616 8.13571,0 0,-44.88664 c 3.92758,-15.00897 9.39814,-22.30305 19.6379,-22.30305 2.52488,0 4.3484,0.28054 6.45246,0.84162 l 1.54298,-7.71489 c -1.96379,-0.56108 -4.48867,-0.84162 -7.29408,-0.84162 z"
           inkscape:connector-curvature="0" />
        <path
           id="path4199"
           style="font-style:normal;font-variant:normal;font-weight:300;font-stretch:normal;font-family:'Fira Sans';-inkscape-font-specification:'Fira Sans Light';fill:#ffffff"
           d="m 606.86687,449.63636 c -13.8868,0 -24.40711,7.99543 -24.40711,19.07682 0,10.38004 6.31219,16.13114 21.88224,20.19899 15.28951,4.20812 19.35736,7.43435 19.35736,16.41168 0,8.83705 -7.43435,13.8868 -18.09492,13.8868 -8.97733,0 -15.42979,-2.80541 -21.46143,-7.85516 l -4.62893,5.33029 c 6.31218,5.33029 14.30761,9.39814 26.23063,9.39814 14.58816,0 26.51117,-7.71489 26.51117,-21.32116 0,-12.48409 -7.57462,-17.95465 -23.56549,-22.16278 -13.18545,-3.50676 -17.81438,-6.59272 -17.81438,-13.8868 0,-7.57462 6.59272,-12.34383 16.27141,-12.34383 7.43435,0 12.9049,2.24434 19.21709,6.87327 l 3.92758,-5.47056 c -6.87327,-5.33029 -14.02708,-8.1357 -23.42522,-8.1357 z"
           inkscape:connector-curvature="0" />
        <path
           id="path4201"
           style="font-style:normal;font-variant:normal;font-weight:300;font-stretch:normal;font-family:'Fira Sans';-inkscape-font-specification:'Fira Sans Light';fill:#ffffff"
           d="m 684.41468,449.63636 c -9.39814,0 -17.2533,4.7692 -22.58359,12.20355 l -0.70136,-10.66057 -7.01353,0 0,102.1171 8.1357,-1.12216 0,-36.18986 c 4.62894,5.89138 11.64247,10.0995 20.90034,10.0995 18.2352,0 27.91388,-15.42979 27.91388,-38.57446 0,-23.70576 -8.55651,-37.8731 -26.65144,-37.8731 z m -2.80542,69.57429 c -8.41624,0 -14.8687,-4.34839 -19.35736,-11.22166 l 0,-38.99527 c 5.04975,-7.01354 11.22166,-12.62437 20.6198,-12.62437 12.76464,0 19.49764,10.23977 19.49764,31.14011 0,21.04061 -7.29408,31.70119 -20.76008,31.70119 z"
           inkscape:connector-curvature="0" />
        <path
           id="path4203"
           style="font-style:normal;font-variant:normal;font-weight:300;font-stretch:normal;font-family:'Fira Sans';-inkscape-font-specification:'Fira Sans Light';fill:#ffffff"
           d="m 781.07217,508.26953 0,-35.34823 c 0,-15.00897 -7.29408,-23.28494 -23.9863,-23.28494 -7.71489,0 -15.00897,1.68325 -23.14467,4.90947 l 2.10406,6.17192 c 7.29408,-2.66515 14.02708,-4.20813 19.91845,-4.20813 12.20355,0 16.97276,5.19002 16.97276,16.83249 l 0,7.01354 -14.02708,0 c -18.79628,0 -30.43875,8.41625 -30.43875,23.84603 0,13.04518 8.55652,21.88224 22.72386,21.88224 9.81896,0 17.67412,-3.92758 22.86414,-12.34383 1.12216,7.85516 4.90947,11.08139 11.36193,12.34383 l 1.82352,-5.7511 c -3.92759,-1.54298 -6.17192,-3.92758 -6.17192,-12.06329 z m -28.47496,11.22166 c -9.67868,0 -15.42978,-5.61083 -15.42978,-15.71032 0,-11.64247 8.27597,-17.39358 23.0044,-17.39358 l 12.76464,0 0,20.19899 c -4.62894,8.27598 -11.08139,12.90491 -20.33926,12.90491 z"
           inkscape:connector-curvature="0" />
        <path
           id="path4205"
           style="font-style:normal;font-variant:normal;font-weight:300;font-stretch:normal;font-family:'Fira Sans';-inkscape-font-specification:'Fira Sans Light';fill:#ffffff"
           d="m 835.65942,449.63636 c -18.79629,0 -30.99984,15.14924 -30.99984,38.71473 0,23.84602 12.34383,37.73283 31.14011,37.73283 8.27597,0 15.28951,-2.94569 21.04061,-7.85516 l -4.06785,-5.61083 c -5.04975,4.06785 -9.95923,6.31218 -16.83249,6.31218 -13.32572,0 -22.58359,-9.67868 -22.58359,-30.7193 0,-21.18088 9.39814,-31.56091 22.72386,-31.56091 6.73299,0 11.5022,1.96379 16.2714,5.89137 l 4.06786,-5.47056 c -6.17192,-5.33029 -12.4841,-7.43435 -20.76007,-7.43435 z"
           inkscape:connector-curvature="0" />
        <path
           id="path4207"
           style="font-style:normal;font-variant:normal;font-weight:300;font-stretch:normal;font-family:'Fira Sans';-inkscape-font-specification:'Fira Sans Light';fill:#ffffff"
           d="m 926.97348,485.12486 c 0,-21.6017 -9.53841,-35.4885 -28.61523,-35.4885 -17.95466,0 -29.31659,15.42978 -29.31659,38.855 0,23.56548 11.78274,37.59256 31.14011,37.59256 9.67868,0 17.11303,-3.3665 23.98629,-8.97733 l -3.78731,-5.19002 c -6.45245,4.76921 -11.78274,7.29408 -19.77817,7.29408 -12.62437,0 -21.88224,-8.27597 -22.86413,-28.19442 l 48.95449,0 c 0.14027,-1.40271 0.28054,-3.64704 0.28054,-5.89137 z m -7.99543,-0.42081 -41.2396,0 c 0.84162,-19.91845 9.39814,-28.3347 20.90034,-28.3347 13.8868,0 20.33926,10.23977 20.33926,26.23063 l 0,2.10407 z"
           inkscape:connector-curvature="0" />
      </g>
    </g>
  </g>
</svg>
