<?xml version="1.0" encoding="UTF-8" standalone="no"?>
<!-- Created with Inkscape (http://www.inkscape.org/) -->

<svg
   xmlns:dc="http://purl.org/dc/elements/1.1/"
   xmlns:cc="http://creativecommons.org/ns#"
   xmlns:rdf="http://www.w3.org/1999/02/22-rdf-syntax-ns#"
   xmlns:svg="http://www.w3.org/2000/svg"
   xmlns="http://www.w3.org/2000/svg"
   xmlns:sodipodi="http://sodipodi.sourceforge.net/DTD/sodipodi-0.dtd"
   xmlns:inkscape="http://www.inkscape.org/namespaces/inkscape"
   width="620"
   height="620"
   viewBox="0 0 164.0416 164.04161"
   version="1.1"
   id="svg1392"
   inkscape:version="0.92.2 (5c3e80d, 2017-08-06)"
   sodipodi:docname="streams.svg"
   inkscape:export-filename="/data/store/bhack/website.git/public/images/streams-title.png"
   inkscape:export-xdpi="39.639999"
   inkscape:export-ydpi="39.639999">
  <defs
     id="defs1386" />
  <sodipodi:namedview
     id="base"
     pagecolor="#ffffff"
     bordercolor="#666666"
     borderopacity="1.0"
     inkscape:pageopacity="0.0"
     inkscape:pageshadow="2"
     inkscape:zoom="0.49497475"
     inkscape:cx="-37.865181"
     inkscape:cy="28.549606"
     inkscape:document-units="mm"
     inkscape:current-layer="g2099"
     showgrid="false"
     units="px"
     inkscape:window-width="1920"
     inkscape:window-height="1138"
     inkscape:window-x="0"
     inkscape:window-y="28"
     inkscape:window-maximized="1" />
  <metadata
     id="metadata1389">
    <rdf:RDF>
      <cc:Work
         rdf:about="">
        <dc:format>image/svg+xml</dc:format>
        <dc:type
           rdf:resource="http://purl.org/dc/dcmitype/StillImage" />
        <dc:title></dc:title>
      </cc:Work>
    </rdf:RDF>
  </metadata>
  <g
     inkscape:label="Primary"
     inkscape:groupmode="layer"
     id="layer1"
     transform="translate(0,-132.95838)"
     style="display:none">
    <path
       inkscape:connector-curvature="0"
       id="path126-6"
       style="fill:#fbc316;fill-opacity:1;fill-rule:nonzero;stroke:none;stroke-width:0.10422918"
       d="m 37.095453,176.07203 -22.463472,38.9076 h 44.925904 z" />
    <path
       inkscape:connector-curvature="0"
       id="path128-7"
       style="fill:#f57c15;fill-opacity:1;fill-rule:nonzero;stroke:none;stroke-width:0.10422918"
       d="M 37.095455,253.88641 14.631981,214.97963 h 44.925904 l -22.46243,38.90678" />
    <path
       inkscape:connector-curvature="0"
       id="path130-5"
       style="fill:#ef2e2d;fill-opacity:1;fill-rule:nonzero;stroke:none;stroke-width:0.10422918"
       d="M 82.021359,253.88641 H 37.095455 l 22.46243,-38.90678" />
    <path
       inkscape:connector-curvature="0"
       id="path132-3"
       style="fill:#91163a;fill-opacity:1;fill-rule:nonzero;stroke:none;stroke-width:0.10422918"
       d="m 82.021357,176.07203 22.462433,38.9076 H 59.557885 Z" />
    <path
       inkscape:connector-curvature="0"
       id="path134-5"
       style="fill:#c5164f;fill-opacity:1;fill-rule:nonzero;stroke:none;stroke-width:0.10422918"
       d="M 59.557885,214.97963 H 104.48379 L 82.021359,253.88641 Z" />
    <path
       inkscape:connector-curvature="0"
       id="path136-6"
       style="fill:#ef2e2d;fill-opacity:1;fill-rule:nonzero;stroke:none;stroke-width:0.10422918"
       d="m 82.021357,176.07203 h 44.925903 l -22.46347,38.9076 z" />
    <path
       inkscape:connector-curvature="0"
       id="path138-2"
       style="fill:#f57c15;fill-opacity:1;fill-rule:nonzero;stroke:none;stroke-width:0.10422918"
       d="m 126.94726,176.07203 22.46243,38.9076 h -44.9259 z" />
    <path
       inkscape:connector-curvature="0"
       id="path140-9"
       style="fill:#fbc316;fill-opacity:1;fill-rule:nonzero;stroke:none;stroke-width:0.10422918"
       d="m 104.48379,214.97963 h 44.9259 l -22.46243,38.90677 z" />
  </g>
  <g
     transform="translate(0,-132.95838)"
     id="g2071"
     inkscape:groupmode="layer"
     inkscape:label="White"
     style="display:none">
    <g
       id="g2081">
      <path
         inkscape:connector-curvature="0"
         id="path2055"
         style="fill:#f1f1f1;fill-opacity:1;fill-rule:nonzero;stroke:none;stroke-width:0.10422918"
         d="m 37.095453,176.07203 -22.463472,38.9076 h 44.925904 z" />
      <path
         inkscape:connector-curvature="0"
         id="path2057"
         style="fill:#bab9b8;fill-opacity:1;fill-rule:nonzero;stroke:none;stroke-width:0.10422918"
         d="M 37.095455,253.88641 14.631981,214.97963 h 44.925904 l -22.46243,38.90678" />
      <path
         inkscape:connector-curvature="0"
         id="path2059"
         style="fill:#8e8e8e;fill-opacity:1;fill-rule:nonzero;stroke:none;stroke-width:0.10422918"
         d="M 82.021359,253.88641 H 37.095455 l 22.46243,-38.90678" />
      <path
         inkscape:connector-curvature="0"
         id="path2061"
         style="fill:#545454;fill-opacity:1;fill-rule:nonzero;stroke:none;stroke-width:0.10422918"
         d="m 82.021357,176.07203 22.462433,38.9076 H 59.557885 Z" />
      <path
         inkscape:connector-curvature="0"
         id="path2063"
         style="fill:#6e6e6e;fill-opacity:1;fill-rule:nonzero;stroke:none;stroke-width:0.10422918"
         d="M 59.557885,214.97963 H 104.48379 L 82.021359,253.88641 Z" />
      <path
         inkscape:connector-curvature="0"
         id="path2065"
         style="fill:#8e8e8e;fill-opacity:1;fill-rule:nonzero;stroke:none;stroke-width:0.10422918"
         d="m 82.021357,176.07203 h 44.925903 l -22.46347,38.9076 z" />
      <path
         inkscape:connector-curvature="0"
         id="path2067"
         style="fill:#bab9b8;fill-opacity:1;fill-rule:nonzero;stroke:none;stroke-width:0.10422918"
         d="m 126.94726,176.07203 22.46243,38.9076 h -44.9259 z" />
      <path
         inkscape:connector-curvature="0"
         id="path2069"
         style="fill:#f1f1f1;fill-opacity:1;fill-rule:nonzero;stroke:none;stroke-width:0.10422918"
         d="m 104.48379,214.97963 h 44.9259 l -22.46243,38.90677 z" />
    </g>
  </g>
  <g
     style="display:inline"
     id="g2099"
     inkscape:groupmode="layer"
     inkscape:label="Primary with Title"
     transform="translate(0,-132.95838)">
    <g
       id="g2223">
      <g
         transform="translate(-2.1666667e-6,-13.932264)"
         id="g2118">
        <path
           d="m 37.095453,176.07203 -22.463472,38.9076 h 44.925904 z"
           style="fill:#fbc316;fill-opacity:1;fill-rule:nonzero;stroke:none;stroke-width:0.10422918"
           id="path2083"
           inkscape:connector-curvature="0" />
        <path
           d="M 37.095455,253.88641 14.631981,214.97963 h 44.925904 l -22.46243,38.90678"
           style="fill:#f57c15;fill-opacity:1;fill-rule:nonzero;stroke:none;stroke-width:0.10422918"
           id="path2085"
           inkscape:connector-curvature="0" />
        <path
           d="M 82.021359,253.88641 H 37.095455 l 22.46243,-38.90678"
           style="fill:#ef2e2d;fill-opacity:1;fill-rule:nonzero;stroke:none;stroke-width:0.10422918"
           id="path2087"
           inkscape:connector-curvature="0" />
        <path
           d="m 82.021357,176.07203 22.462433,38.9076 H 59.557885 Z"
           style="fill:#91163a;fill-opacity:1;fill-rule:nonzero;stroke:none;stroke-width:0.10422918"
           id="path2089"
           inkscape:connector-curvature="0" />
        <path
           d="M 59.557885,214.97963 H 104.48379 L 82.021359,253.88641 Z"
           style="fill:#c5164f;fill-opacity:1;fill-rule:nonzero;stroke:none;stroke-width:0.10422918"
           id="path2091"
           inkscape:connector-curvature="0" />
        <path
           d="m 82.021357,176.07203 h 44.925903 l -22.46347,38.9076 z"
           style="fill:#ef2e2d;fill-opacity:1;fill-rule:nonzero;stroke:none;stroke-width:0.10422918"
           id="path2093"
           inkscape:connector-curvature="0" />
        <path
           d="m 126.94726,176.07203 22.46243,38.9076 h -44.9259 z"
           style="fill:#f57c15;fill-opacity:1;fill-rule:nonzero;stroke:none;stroke-width:0.10422918"
           id="path2095"
           inkscape:connector-curvature="0" />
        <path
           d="m 104.48379,214.97963 h 44.9259 l -22.46243,38.90677 z"
           style="fill:#fbc316;fill-opacity:1;fill-rule:nonzero;stroke:none;stroke-width:0.10422918"
           id="path2097"
           inkscape:connector-curvature="0" />
      </g>
      <g
         id="flowRoot2120"
         style="font-style:normal;font-weight:normal;font-size:40px;line-height:125%;font-family:sans-serif;letter-spacing:0px;word-spacing:0px;fill:#000000;fill-opacity:1;stroke:none;stroke-width:1px;stroke-linecap:butt;stroke-linejoin:miter;stroke-opacity:1"
         transform="matrix(0.35006936,0,0,0.35006936,-3.3796921,72.544876)"
         aria-label="STREAMS">
        <path
           inkscape:connector-curvature="0"
           id="path2184"
           style="font-style:normal;font-variant:normal;font-weight:normal;font-stretch:normal;font-size:85.33333588px;font-family:Questrial;-inkscape-font-specification:Questrial"
           d="m 63.905146,509.34522 q -1.621333,1.36534 -2.218667,3.072 -0.512,1.70667 -0.512,3.66934 0,1.87733 1.621334,3.49866 1.706667,1.62134 4.437333,2.73067 2.730667,1.10933 6.229334,1.96267 3.498667,0.85333 7.082667,1.792 3.669333,0.85333 7.168,2.048 3.498667,1.10933 6.229333,2.90133 6.05867,3.84 6.05867,10.496 0,7.936 -5.973336,12.11733 -5.888,4.18134 -16.384001,4.18134 -11.861333,0 -18.090667,-4.94934 -5.546667,-4.43733 -6.314667,-12.62933 h 6.656 q 0.341334,5.80267 5.632001,8.87467 4.608,2.64533 12.202667,2.64533 15.872,0 15.872,-9.984 0,-3.41333 -2.901333,-5.376 -2.816,-1.96267 -7.168001,-3.24267 -4.266666,-1.28 -9.301333,-2.38933 -4.949334,-1.10933 -9.301334,-2.816 -4.266667,-1.792 -7.168,-4.608 -2.816,-2.90133 -2.816,-7.76533 0,-6.912 5.290667,-11.264 5.290667,-4.352 15.957334,-4.352 10.752,0 16.64,4.94933 5.376,4.352 5.717334,11.17867 h -6.570667 q -0.853334,-6.99734 -9.045334,-9.30134 -2.901333,-0.85333 -7.253333,-0.85333 -4.266667,0 -7.253334,1.024 -2.901333,0.93867 -4.522667,2.38933 z" />
        <path
           inkscape:connector-curvature="0"
           id="path2186"
           style="font-style:normal;font-variant:normal;font-weight:normal;font-stretch:normal;font-size:85.33333588px;font-family:Questrial;-inkscape-font-specification:Questrial"
           d="m 149.60982,506.78522 h -19.712 v 50.34667 h -6.4 v -50.34667 h -19.712 v -6.144 h 45.824 z" />
        <path
           inkscape:connector-curvature="0"
           id="path2188"
           style="font-style:normal;font-variant:normal;font-weight:normal;font-stretch:normal;font-size:85.33333588px;font-family:Questrial;-inkscape-font-specification:Questrial"
           d="m 164.15315,557.13189 h -6.4 v -56.49067 h 27.05067 q 8.61866,0 13.824,4.77867 5.20533,4.69333 5.20533,12.88533 0,10.58134 -8.78933,14.42134 -2.47467,1.10933 -4.864,1.62133 l 14.848,22.784 h -7.59467 l -13.65333,-21.67467 h -19.62667 z m 0,-27.73333 h 19.54133 q 9.04534,0 12.45867,-5.632 1.28,-2.13334 1.28,-5.46134 0,-5.376 -3.66933,-8.448 -3.66934,-3.15733 -9.728,-3.15733 h -19.88267 z" />
        <path
           inkscape:connector-curvature="0"
           id="path2190"
           style="font-style:normal;font-variant:normal;font-weight:normal;font-stretch:normal;font-size:85.33333588px;font-family:Questrial;-inkscape-font-specification:Questrial"
           d="m 221.31981,506.78522 v 18.944 h 31.40267 v 6.22934 h -31.40267 v 19.02933 h 35.15734 v 6.144 h -41.55734 v -56.49067 h 41.55734 v 6.144 z" />
        <path
           inkscape:connector-curvature="0"
           id="path2192"
           style="font-style:normal;font-variant:normal;font-weight:normal;font-stretch:normal;font-size:85.33333588px;font-family:Questrial;-inkscape-font-specification:Questrial"
           d="m 316.07582,557.13189 h -7.08266 l -6.912,-16.384 h -27.98934 l -6.912,16.384 h -7.08266 l 23.97866,-56.49067 h 8.02134 z m -16.46933,-22.272 -11.52,-27.56267 -11.52,27.56267 z" />
        <path
           inkscape:connector-curvature="0"
           id="path2194"
           style="font-style:normal;font-variant:normal;font-weight:normal;font-stretch:normal;font-size:85.33333588px;font-family:Questrial;-inkscape-font-specification:Questrial"
           d="m 378.20782,500.64122 v 56.49067 h -6.4 v -46.76267 l -20.90666,26.88 -21.248,-26.88 v 46.76267 h -6.4 v -56.49067 h 7.424 l 20.224,26.79467 19.88266,-26.79467 z" />
        <path
           inkscape:connector-curvature="0"
           id="path2196"
           style="font-style:normal;font-variant:normal;font-weight:normal;font-stretch:normal;font-size:85.33333588px;font-family:Questrial;-inkscape-font-specification:Questrial"
           d="m 398.57183,509.34522 q -1.62133,1.36534 -2.21866,3.072 -0.512,1.70667 -0.512,3.66934 0,1.87733 1.62133,3.49866 1.70667,1.62134 4.43733,2.73067 2.73067,1.10933 6.22934,1.96267 3.49866,0.85333 7.08266,1.792 3.66934,0.85333 7.168,2.048 3.49867,1.10933 6.22934,2.90133 6.05866,3.84 6.05866,10.496 0,7.936 -5.97333,12.11733 -5.888,4.18134 -16.384,4.18134 -11.86133,0 -18.09067,-4.94934 -5.54666,-4.43733 -6.31466,-12.62933 h 6.656 q 0.34133,5.80267 5.632,8.87467 4.608,2.64533 12.20266,2.64533 15.872,0 15.872,-9.984 0,-3.41333 -2.90133,-5.376 -2.816,-1.96267 -7.168,-3.24267 -4.26667,-1.28 -9.30133,-2.38933 -4.94934,-1.10933 -9.30134,-2.816 -4.26666,-1.792 -7.168,-4.608 -2.816,-2.90133 -2.816,-7.76533 0,-6.912 5.29067,-11.264 5.29067,-4.352 15.95733,-4.352 10.752,0 16.64,4.94933 5.376,4.352 5.71734,11.17867 h -6.57067 q -0.85333,-6.99734 -9.04533,-9.30134 -2.90134,-0.85333 -7.25334,-0.85333 -4.26666,0 -7.25333,1.024 -2.90133,0.93867 -4.52267,2.38933 z" />
      </g>
    </g>
  </g>
</svg>
