<?xml version="1.0" encoding="UTF-8"?>

<svg version="1.2" baseProfile="tiny" width="110mm" height="25mm" viewBox="0 0 11000 2500" preserveAspectRatio="xMidYMid" fill-rule="evenodd" clip-path="url(#presentation_clip_path)" stroke-width="28.222" stroke-linejoin="round" xmlns="http://www.w3.org/2000/svg" xmlns:ooo="http://xml.openoffice.org/svg/export" xmlns:xlink="http://www.w3.org/1999/xlink" xml:space="preserve">
 <defs class="ClipPathGroup">
  <clipPath id="presentation_clip_path" clipPathUnits="userSpaceOnUse">
   <rect x="0" y="0" width="11000" height="2500"/>
  </clipPath>
 </defs>
 <defs class="TextShapeIndex">
  <g ooo:slide="id1" ooo:id-list="id3 id4 id5 id6 id7 id8 id9 id10 id11 id12 id13 id14"/>
 </defs>
 <defs class="EmbeddedBulletChars">
  <g id="bullet-char-template(57356)" transform="scale(0.00048828125,-0.00048828125)">
   <path d="M 580,1141 L 1163,571 580,0 -4,571 580,1141 Z"/>
  </g>
  <g id="bullet-char-template(57354)" transform="scale(0.00048828125,-0.00048828125)">
   <path d="M 8,1128 L 1137,1128 1137,0 8,0 8,1128 Z"/>
  </g>
  <g id="bullet-char-template(10146)" transform="scale(0.00048828125,-0.00048828125)">
   <path d="M 174,0 L 602,739 174,1481 1456,739 174,0 Z M 1358,739 L 309,1346 659,739 1358,739 Z"/>
  </g>
  <g id="bullet-char-template(10132)" transform="scale(0.00048828125,-0.00048828125)">
   <path d="M 2015,739 L 1276,0 717,0 1260,543 174,543 174,936 1260,936 717,1481 1274,1481 2015,739 Z"/>
  </g>
  <g id="bullet-char-template(10007)" transform="scale(0.00048828125,-0.00048828125)">
   <path d="M 0,-2 C -7,14 -16,27 -25,37 L 356,567 C 262,823 215,952 215,954 215,979 228,992 255,992 264,992 276,990 289,987 310,991 331,999 354,1012 L 381,999 492,748 772,1049 836,1024 860,1049 C 881,1039 901,1025 922,1006 886,937 835,863 770,784 769,783 710,716 594,584 L 774,223 C 774,196 753,168 711,139 L 727,119 C 717,90 699,76 672,76 641,76 570,178 457,381 L 164,-76 C 142,-110 111,-127 72,-127 30,-127 9,-110 8,-76 1,-67 -2,-52 -2,-32 -2,-23 -1,-13 0,-2 Z"/>
  </g>
  <g id="bullet-char-template(10004)" transform="scale(0.00048828125,-0.00048828125)">
   <path d="M 285,-33 C 182,-33 111,30 74,156 52,228 41,333 41,471 41,549 55,616 82,672 116,743 169,778 240,778 293,778 328,747 346,684 L 369,508 C 377,444 397,411 428,410 L 1163,1116 C 1174,1127 1196,1133 1229,1133 1271,1133 1292,1118 1292,1087 L 1292,965 C 1292,929 1282,901 1262,881 L 442,47 C 390,-6 338,-33 285,-33 Z"/>
  </g>
  <g id="bullet-char-template(9679)" transform="scale(0.00048828125,-0.00048828125)">
   <path d="M 813,0 C 632,0 489,54 383,161 276,268 223,411 223,592 223,773 276,916 383,1023 489,1130 632,1184 813,1184 992,1184 1136,1130 1245,1023 1353,916 1407,772 1407,592 1407,412 1353,268 1245,161 1136,54 992,0 813,0 Z"/>
  </g>
  <g id="bullet-char-template(8226)" transform="scale(0.00048828125,-0.00048828125)">
   <path d="M 346,457 C 273,457 209,483 155,535 101,586 74,649 74,723 74,796 101,859 155,911 209,963 273,989 346,989 419,989 480,963 531,910 582,859 608,796 608,723 608,648 583,586 532,535 482,483 420,457 346,457 Z"/>
  </g>
  <g id="bullet-char-template(8211)" transform="scale(0.00048828125,-0.00048828125)">
   <path d="M -4,459 L 1135,459 1135,606 -4,606 -4,459 Z"/>
  </g>
 </defs>
 <defs class="TextEmbeddedBitmaps"/>
 <g>
  <g id="id2" class="Master_Slide">
   <g id="bg-id2" class="Background"/>
   <g id="bo-id2" class="BackgroundObjects"/>
  </g>
 </g>
 <g class="SlideGroup">
  <g>
   <g id="id1" class="Slide" clip-path="url(#presentation_clip_path)">
    <g class="Page">
     <g class="Group">
      <g class="com.sun.star.drawing.ClosedBezierShape">
       <g id="id3">
        <path fill="rgb(255,149,14)" stroke="none" d="M 1338,2120 L 1338,869 1113,869 1113,1265 C 1047,1192 938,1148 820,1148 557,1148 351,1368 351,1649 351,1927 556,2142 821,2142 948,2142 1042,2100 1131,1998 L 1131,2120 1338,2120 Z M 1130,1646 C 1130,1809 1009,1935 857,1935 700,1935 578,1805 578,1639 578,1480 698,1355 852,1355 1009,1355 1130,1482 1130,1646 Z"/>
       </g>
      </g>
      <g class="com.sun.star.drawing.ClosedBezierShape">
       <g id="id4">
        <path fill="rgb(255,149,14)" stroke="none" d="M 2459,2120 L 2459,1182 2253,1182 2253,1307 C 2175,1204 2082,1160 1946,1160 1669,1160 1469,1368 1469,1654 1469,1937 1667,2142 1941,2142 2073,2142 2163,2100 2253,1998 L 2253,2120 2459,2120 Z M 2246,1658 C 2246,1814 2144,1935 1973,1935 1809,1935 1696,1824 1696,1659 1696,1488 1809,1367 1970,1367 2131,1367 2246,1487 2246,1658 Z"/>
       </g>
      </g>
      <g class="com.sun.star.drawing.ClosedBezierShape">
       <g id="id5">
        <path fill="rgb(255,149,14)" stroke="none" d="M 3021,1387 C 3021,1319 3021,1250 3021,1182 2976,1182 2931,1182 2885,1182 2885,1078 2885,973 2885,869 2810,869 2735,869 2660,869 2660,973 2660,1078 2660,1182 2624,1182 2587,1182 2550,1182 2550,1250 2550,1319 2550,1387 2587,1387 2624,1387 2660,1387 2660,1631 2660,1876 2660,2120 2735,2120 2810,2120 2885,2120 2885,1876 2885,1631 2885,1387 2931,1387 2976,1387 3021,1387 Z"/>
       </g>
      </g>
      <g class="com.sun.star.drawing.ClosedBezierShape">
       <g id="id6">
        <path fill="rgb(255,149,14)" stroke="none" d="M 4067,2120 L 4067,1182 3861,1182 3861,1307 C 3783,1204 3690,1160 3554,1160 3277,1160 3077,1368 3077,1654 3077,1937 3275,2142 3549,2142 3681,2142 3771,2100 3861,1998 L 3861,2120 4067,2120 Z M 3854,1658 C 3854,1814 3752,1935 3581,1935 3417,1935 3304,1824 3304,1659 3304,1488 3417,1367 3578,1367 3739,1367 3854,1487 3854,1658 Z"/>
       </g>
      </g>
      <g class="com.sun.star.drawing.ClosedBezierShape">
       <g id="id7">
        <path fill="rgb(0,69,134)" stroke="none" d="M 5058,1255 C 5058,1111 4997,993 4889,927 4818,884 4735,869 4569,869 L 4259,869 4259,2120 4491,2120 4491,1645 4566,1645 C 4743,1645 4825,1631 4894,1589 4996,1526 5058,1399 5058,1255 Z M 4825,1259 C 4825,1367 4767,1423 4559,1423 L 4491,1423 4491,1091 4569,1091 C 4747,1091 4825,1126 4825,1259 Z"/>
       </g>
      </g>
      <g class="com.sun.star.drawing.ClosedBezierShape">
       <g id="id8">
        <path fill="rgb(0,69,134)" stroke="none" d="M 5409,2120 C 5409,1807 5409,1495 5409,1182 5334,1182 5258,1182 5183,1182 5183,1495 5183,1807 5183,2120 5258,2120 5334,2120 5409,2120 Z M 5410,1046 C 5410,971 5410,896 5410,821 5335,821 5260,821 5185,821 5185,896 5185,971 5185,1046 5260,1046 5335,1046 5410,1046 Z"/>
       </g>
      </g>
      <g class="com.sun.star.drawing.ClosedBezierShape">
       <g id="id9">
        <path fill="rgb(0,69,134)" stroke="none" d="M 6572,1648 C 6572,1365 6376,1160 6105,1160 5978,1160 5870,1207 5797,1292 L 5797,1182 5590,1182 5590,2433 5816,2433 5816,2032 C 5900,2108 5988,2142 6103,2142 6374,2142 6572,1932 6572,1648 Z M 6345,1653 C 6345,1812 6229,1935 6080,1935 5921,1935 5802,1814 5802,1649 5802,1488 5921,1367 6076,1367 6229,1367 6345,1490 6345,1653 Z"/>
       </g>
      </g>
      <g class="com.sun.star.drawing.ClosedBezierShape">
       <g id="id10">
        <path fill="rgb(0,69,134)" stroke="none" d="M 7645,1665 C 7645,1373 7440,1160 7161,1160 6885,1160 6667,1378 6667,1654 6667,1929 6889,2142 7175,2142 7364,2142 7559,2035 7622,1842 L 7376,1842 C 7319,1910 7263,1935 7170,1935 7036,1935 6938,1864 6911,1751 L 7637,1751 C 7644,1719 7645,1698 7645,1665 Z M 7424,1553 L 6904,1553 C 6939,1433 7031,1367 7165,1367 7303,1367 7395,1433 7424,1553 Z"/>
       </g>
      </g>
      <g class="com.sun.star.drawing.ClosedBezierShape">
       <g id="id11">
        <path fill="rgb(0,69,134)" stroke="none" d="M 8017,2120 C 8017,1703 8017,1286 8017,869 7942,869 7866,869 7791,869 7791,1286 7791,1703 7791,2120 7866,2120 7942,2120 8017,2120 Z"/>
       </g>
      </g>
      <g class="com.sun.star.drawing.ClosedBezierShape">
       <g id="id12">
        <path fill="rgb(0,69,134)" stroke="none" d="M 8423,2120 C 8423,1807 8423,1495 8423,1182 8348,1182 8272,1182 8197,1182 8197,1495 8197,1807 8197,2120 8272,2120 8348,2120 8423,2120 Z M 8424,1046 C 8424,971 8424,896 8424,821 8349,821 8274,821 8199,821 8199,896 8199,971 8199,1046 8274,1046 8349,1046 8424,1046 Z"/>
       </g>
      </g>
      <g class="com.sun.star.drawing.ClosedBezierShape">
       <g id="id13">
        <path fill="rgb(0,69,134)" stroke="none" d="M 9437,2120 L 9437,1617 C 9437,1450 9420,1368 9370,1295 9309,1207 9207,1160 9077,1160 8970,1160 8896,1192 8813,1272 L 8813,1182 8604,1182 8604,2120 8830,2120 8830,1678 C 8830,1553 8838,1499 8867,1453 8902,1397 8962,1367 9033,1367 9144,1367 9212,1411 9212,1661 L 9212,2120 9437,2120 Z"/>
       </g>
      </g>
      <g class="com.sun.star.drawing.ClosedBezierShape">
       <g id="id14">
        <path fill="rgb(0,69,134)" stroke="none" d="M 10558,1665 C 10558,1373 10353,1160 10074,1160 9798,1160 9580,1378 9580,1654 9580,1929 9802,2142 10088,2142 10277,2142 10472,2035 10535,1842 L 10289,1842 C 10232,1910 10176,1935 10083,1935 9949,1935 9851,1864 9824,1751 L 10550,1751 C 10557,1719 10558,1698 10558,1665 Z M 10337,1553 L 9817,1553 C 9852,1433 9944,1367 10078,1367 10216,1367 10308,1433 10337,1553 Z"/>
       </g>
      </g>
     </g>
    </g>
   </g>
  </g>
 </g>
</svg>