<?xml version="1.0" encoding="UTF-8" standalone="no"?>
<!-- Created with Inkscape (http://www.inkscape.org/) -->

<svg
   xmlns:dc="http://purl.org/dc/elements/1.1/"
   xmlns:cc="http://creativecommons.org/ns#"
   xmlns:rdf="http://www.w3.org/1999/02/22-rdf-syntax-ns#"
   xmlns:svg="http://www.w3.org/2000/svg"
   xmlns="http://www.w3.org/2000/svg"
   xmlns:sodipodi="http://sodipodi.sourceforge.net/DTD/sodipodi-0.dtd"
   xmlns:inkscape="http://www.inkscape.org/namespaces/inkscape"
   id="svg4923"
   version="1.1"
   inkscape:version="0.91 r13725"
   xml:space="preserve"
   width="834.5575"
   height="563.45502"
   viewBox="0 0 834.5575 563.45502"
   sodipodi:docname="lab79-label-symbol.svg"><metadata
     id="metadata4929"><rdf:RDF><cc:Work
         rdf:about=""><dc:format>image/svg+xml</dc:format><dc:type
           rdf:resource="http://purl.org/dc/dcmitype/StillImage" /><dc:title></dc:title></cc:Work></rdf:RDF></metadata><defs
     id="defs4927"><clipPath
       clipPathUnits="userSpaceOnUse"
       id="clipPath4939"><path
         d="m 0,1002 1502,0 L 1502,0 0,0 0,1002 Z"
         id="path4941"
         inkscape:connector-curvature="0" /></clipPath></defs><sodipodi:namedview
     pagecolor="#ffffff"
     bordercolor="#666666"
     borderopacity="1"
     objecttolerance="10"
     gridtolerance="10"
     guidetolerance="10"
     inkscape:pageopacity="0"
     inkscape:pageshadow="2"
     inkscape:window-width="2560"
     inkscape:window-height="1017"
     id="namedview4925"
     showgrid="false"
     inkscape:zoom="1.3507324"
     inkscape:cx="201.07765"
     inkscape:cy="295.06615"
     inkscape:window-x="-8"
     inkscape:window-y="-8"
     inkscape:window-maximized="1"
     inkscape:current-layer="g4931"
     fit-margin-top="0"
     fit-margin-left="0"
     fit-margin-right="0"
     fit-margin-bottom="0" /><g
     id="g4931"
     inkscape:groupmode="layer"
     inkscape:label="LAB79_Logo"
     transform="matrix(1.25,0,0,-1.25,-82.72125,781.7275)"><g
       id="g4796"><rect
         transform="scale(1,-1)"
         y="-612.89874"
         x="76.245613"
         height="428.21222"
         width="254.67667"
         id="rect4794"
         style="opacity:1;fill:#ffffff;fill-opacity:1;fill-rule:nonzero;stroke:none;stroke-width:24;stroke-linecap:round;stroke-linejoin:round;stroke-miterlimit:4;stroke-dasharray:none;stroke-opacity:1" /><g
         transform="translate(-344.177,-90.899)"
         id="g5519"><path
           d="m 1065.269,275.538 -391.913,0 0,429.633 391.913,0 0,-429.633 z"
           style="fill:#ffe100;fill-opacity:1;fill-rule:nonzero;stroke:none"
           id="path4933"
           inkscape:connector-curvature="0" /><g
           id="g4935"><g
             id="g4937"
             clip-path="url(#clipPath4939)"><g
               id="g4943"
               transform="translate(539.3638,491.5131)"><path
                 d="m 0,0 0,-25.169 -0.454,-1.232 c -16.092,-43.664 -27.485,-88.917 -33.988,-134.994 l -0.666,-4.718 -24.572,0 0.985,6.829 c 6.607,45.784 18.045,90.74 34.122,134.115 l 0,0 -50.668,0 0,25.169 L 0,0 Z"
                 style="fill:#231f20;fill-opacity:1;fill-rule:nonzero;stroke:none"
                 id="path4945"
                 inkscape:connector-curvature="0" /></g><g
               id="g4947"
               transform="translate(603.3067,453.4951)"><path
                 d="m 0,0 c 0,4.061 -1.082,7.484 -3.245,10.266 -2.165,2.782 -5.233,4.173 -9.207,4.173 -3.974,0 -7.043,-1.391 -9.206,-4.173 C -23.823,7.484 -24.904,4.061 -24.904,0 l 0,-30.732 c 0,-4.858 1.766,-8.876 5.299,-12.055 1.59,-1.502 3.928,-2.252 7.021,-2.252 6.358,0 10.332,3.355 11.922,10.068 0.441,2.03 0.662,3.576 0.662,4.636 L 0,0 Z m -13.114,40.005 c 10.949,0 20.046,-3.974 27.288,-11.922 6.975,-7.596 10.465,-16.869 10.465,-27.818 l 0,-90.607 c 0,-11.041 -3.6,-20.4 -10.796,-28.083 -7.199,-7.683 -16.184,-11.525 -26.957,-11.525 -11.04,0 -20.135,3.929 -27.288,11.79 -6.978,7.594 -10.465,16.866 -10.465,27.818 l 0,3.576 25.963,0 0,-4.106 c 0,-4.063 1.081,-7.464 3.246,-10.2 2.163,-2.739 5.232,-4.107 9.206,-4.107 3.974,0 7.042,1.368 9.207,4.107 2.163,2.736 3.245,6.137 3.245,10.2 l 0,33.249 c -5.828,-5.212 -12.143,-7.816 -18.943,-7.816 -10.951,0 -19.164,3.842 -24.639,11.525 -4.857,6.71 -7.285,16.072 -7.285,28.083 l 0,28.48 0.132,0 c 0.352,7.683 2.538,14.592 6.557,20.731 4.018,6.137 9.472,10.707 16.36,13.711 4.504,1.941 9.405,2.914 14.704,2.914"
                 style="fill:#231f20;fill-opacity:1;fill-rule:nonzero;stroke:none"
                 id="path4949"
                 inkscape:connector-curvature="0" /></g><g
               id="g4951"
               transform="translate(505.434,558.1011)"><path
                 d="m 0,0 -40.801,0 0,99.269 14.974,0 0,-84.375 L 0,14.894 0,0 Z"
                 style="fill:#231f20;fill-opacity:1;fill-rule:nonzero;stroke:none"
                 id="path4953"
                 inkscape:connector-curvature="0" /></g><g
               id="g4955"
               transform="translate(542.827,634.6326)"><path
                 d="m 0,0 -5.546,-39.137 11.092,0 L 0,0 Z m -7.866,-53.715 -3.638,-22.816 -15.591,0 16.876,99.269 20.597,0 16.636,-99.269 -15.743,0 -3.503,22.816 -15.634,0 z"
                 style="fill:#231f20;fill-opacity:1;fill-rule:nonzero;stroke:none"
                 id="path4957"
                 inkscape:connector-curvature="0" /></g><g
               id="g4959"
               transform="translate(596.9093,572.9163)"><path
                 d="m 0,0 6.259,0 c 5.07,0 8.582,2.614 10.537,7.843 0.686,1.795 1.03,3.855 1.03,6.18 0,5.546 -1.058,9.586 -3.169,12.121 -1.902,2.324 -4.702,3.486 -8.398,3.486 L 0,29.63 0,0 Z m 0,43.97 6.259,0 c 4.647,0 7.764,2.27 9.348,6.813 0.581,1.69 0.872,3.776 0.872,6.259 0,4.12 -1.004,7.236 -3.011,9.349 -1.849,1.953 -4.251,2.931 -7.209,2.931 L 0,69.322 0,43.97 Z m -16.162,-58.785 0,99.348 22.421,0 c 5.914,0 11.25,-1.558 16.003,-4.674 4.067,-2.642 6.972,-6.734 8.715,-12.28 0.951,-2.959 1.426,-6.47 1.426,-10.537 0,-6.655 -1.77,-11.99 -5.308,-16.003 -1.479,-1.691 -3.222,-2.985 -5.229,-3.882 3.328,-1.268 6.152,-3.777 8.477,-7.527 1.532,-2.535 2.667,-5.81 3.407,-9.824 0.369,-2.06 0.555,-4.357 0.555,-6.892 0,-6.286 -1.189,-11.62 -3.566,-16.004 -1.849,-3.434 -4.463,-6.179 -7.843,-8.239 -3.803,-2.325 -7.579,-3.486 -11.329,-3.486 l -27.729,0 z"
                 style="fill:#231f20;fill-opacity:1;fill-rule:nonzero;stroke:none"
                 id="path4961"
                 inkscape:connector-curvature="0" /></g><path
               d="m 628.138,518.516 -163.435,0 0,13.659 163.435,0 0,-13.659 z"
               style="fill:#231f20;fill-opacity:1;fill-rule:nonzero;stroke:none"
               id="path4963"
               inkscape:connector-curvature="0" /><g
               id="g4965"
               transform="translate(736.666,393.9586)"><path
                 d="m 0,0 c -8.012,0 -14.51,6.491 -14.516,14.505 l -0.094,124.968 c -0.022,28.699 14.797,54.411 39.64,68.78 24.843,14.368 54.521,14.389 79.383,0.06 L 212.687,145.91 c 6.946,-4.003 9.331,-12.879 5.328,-19.825 -4.002,-6.947 -12.881,-9.332 -19.825,-5.328 L 89.917,183.159 C 74.146,192.25 55.323,192.234 39.565,183.121 23.808,174.008 14.408,157.699 14.422,139.495 L 14.516,14.527 C 14.522,6.51 8.028,0.007 0.011,0 L 0,0 Z"
                 style="fill:#231f20;fill-opacity:1;fill-rule:nonzero;stroke:none"
                 id="path4967"
                 inkscape:connector-curvature="0" /></g><g
               id="g4969"
               transform="translate(869.6428,391.8718)"><path
                 d="m 0,0 c -4.9,0 -9.68,2.479 -12.414,6.971 -4.168,6.849 -1.996,15.779 4.852,19.947 L 99.19,91.891 c 15.55,9.464 24.581,25.98 24.16,44.178 -0.422,18.198 -10.208,34.277 -26.178,43.012 l -109.644,59.963 c -7.033,3.846 -9.617,12.666 -5.771,19.701 3.846,7.033 12.665,9.618 19.702,5.77 l 109.643,-59.962 c 25.18,-13.771 40.608,-39.121 41.273,-67.813 0.663,-28.69 -13.576,-54.727 -38.091,-69.649 L 7.534,2.118 C 5.176,0.683 2.57,0 0,0"
                 style="fill:#231f20;fill-opacity:1;fill-rule:nonzero;stroke:none"
                 id="path4971"
                 inkscape:connector-curvature="0" /></g><g
               id="g4973"
               transform="translate(869.5723,324.8666)"><path
                 d="m 0,0 c -13.272,0 -26.56,3.4 -38.754,10.215 -25.053,14.001 -40.248,39.492 -40.648,68.188 l -1.744,124.956 c -0.112,8.017 6.296,14.606 14.312,14.718 7.989,0.146 14.606,-6.296 14.718,-14.312 l 1.744,-124.956 c 0.254,-18.202 9.891,-34.371 25.781,-43.251 15.889,-8.883 34.712,-8.619 50.348,0.702 L 133.1,100.248 c 6.889,4.108 15.797,1.851 19.901,-5.036 4.106,-6.886 1.851,-15.797 -5.035,-19.901 L 40.622,11.323 C 27.97,3.781 13.993,0 0,0"
                 style="fill:#231f20;fill-opacity:1;fill-rule:nonzero;stroke:none"
                 id="path4975"
                 inkscape:connector-curvature="0" /></g><path
               d="m 1053.675,289.842 -366.788,0 0,402.115 366.788,0 0,-402.115 z m -618.997,402.116 227.885,0 0,-402.115 -227.885,0 0,402.115 z m -24.324,-426.441 667.646,0 0,450.764 -667.646,0 0,-450.764 z"
               style="fill:#231f20;fill-opacity:1;fill-rule:nonzero;stroke:none"
               id="path4977"
               inkscape:connector-curvature="0" /></g></g></g></g></g></svg>